<mxfile host="app.diagrams.net" modified="2023-10-29T13:32:04.243Z" agent="Mozilla/5.0 (Macintosh; Intel Mac OS X 10_15_7) AppleWebKit/537.36 (KHTML, like Gecko) Chrome/118.0.0.0 Safari/537.36 Edg/118.0.2088.69" etag="CXnLnIQ8ddqh5k0fS2Ky" version="22.0.8" type="device" pages="4">
  <diagram id="5T9dfxICn7N3S70nNHvP" name="JOINS">
    <mxGraphModel dx="976" dy="560" grid="1" gridSize="10" guides="1" tooltips="1" connect="1" arrows="1" fold="1" page="1" pageScale="1" pageWidth="850" pageHeight="1100" math="0" shadow="0">
      <root>
        <mxCell id="0" />
        <mxCell id="1" parent="0" />
        <mxCell id="zJBmIWDR50-qDCNYkhgR-75" value="" style="rounded=1;whiteSpace=wrap;html=1;strokeColor=#000000;fillColor=none;arcSize=6;dashed=1;dashPattern=1 1;fontFamily=Courier New;" parent="1" vertex="1">
          <mxGeometry x="70" y="1250" width="310" height="40" as="geometry" />
        </mxCell>
        <mxCell id="zJBmIWDR50-qDCNYkhgR-76" value="" style="rounded=1;whiteSpace=wrap;html=1;strokeColor=#000000;fillColor=none;arcSize=4;dashed=1;dashPattern=1 1;fontFamily=Courier New;" parent="1" vertex="1">
          <mxGeometry x="250" y="1200" width="80" height="140" as="geometry" />
        </mxCell>
        <mxCell id="IwMMO9KyCTvZ_EGXPb7w-47" value="" style="rounded=0;whiteSpace=wrap;html=1;fontFamily=Lucida Console;fontSize=6;strokeColor=#000000;strokeWidth=1;fillColor=default;gradientColor=none;" parent="1" vertex="1">
          <mxGeometry x="40" y="120" width="120" height="10" as="geometry" />
        </mxCell>
        <mxCell id="IwMMO9KyCTvZ_EGXPb7w-48" value="" style="rounded=0;whiteSpace=wrap;html=1;fontFamily=Lucida Console;fontSize=6;strokeColor=#36393d;strokeWidth=1;fillColor=#cce5ff;" parent="1" vertex="1">
          <mxGeometry x="40" y="130" width="40" height="40" as="geometry" />
        </mxCell>
        <mxCell id="IwMMO9KyCTvZ_EGXPb7w-49" value="" style="rounded=0;whiteSpace=wrap;html=1;fontFamily=Lucida Console;fontSize=6;strokeColor=#000000;strokeWidth=1;fillColor=#f0b576;" parent="1" vertex="1">
          <mxGeometry x="80" y="130" width="40" height="40" as="geometry" />
        </mxCell>
        <mxCell id="IwMMO9KyCTvZ_EGXPb7w-51" value="" style="rounded=0;whiteSpace=wrap;html=1;fontFamily=Lucida Console;fontSize=6;strokeColor=#000000;strokeWidth=1;fillColor=#F0B576;" parent="1" vertex="1">
          <mxGeometry x="120" y="130" width="40" height="40" as="geometry" />
        </mxCell>
        <mxCell id="IwMMO9KyCTvZ_EGXPb7w-52" value="" style="endArrow=none;html=1;rounded=0;fontFamily=Lucida Console;fontSize=6;entryX=1;entryY=0.5;entryDx=0;entryDy=0;exitX=0;exitY=0.5;exitDx=0;exitDy=0;startArrow=none;" parent="1" source="IwMMO9KyCTvZ_EGXPb7w-48" target="IwMMO9KyCTvZ_EGXPb7w-51" edge="1">
          <mxGeometry width="50" height="50" relative="1" as="geometry">
            <mxPoint x="50" y="230" as="sourcePoint" />
            <mxPoint x="100" y="180" as="targetPoint" />
          </mxGeometry>
        </mxCell>
        <mxCell id="IwMMO9KyCTvZ_EGXPb7w-53" value="1" style="text;strokeColor=default;fillColor=#A8CCF7;html=1;fontSize=12;fontStyle=1;verticalAlign=bottom;align=center;fontFamily=Courier New;" parent="1" vertex="1">
          <mxGeometry x="40" y="130" width="40" height="20" as="geometry" />
        </mxCell>
        <mxCell id="IwMMO9KyCTvZ_EGXPb7w-55" value="2" style="text;strokeColor=default;fillColor=#A8CCF7;html=1;fontSize=12;fontStyle=1;verticalAlign=bottom;align=center;fontFamily=Courier New;" parent="1" vertex="1">
          <mxGeometry x="40" y="150" width="40" height="20" as="geometry" />
        </mxCell>
        <mxCell id="IwMMO9KyCTvZ_EGXPb7w-56" value="" style="rounded=0;whiteSpace=wrap;html=1;fontFamily=Lucida Console;fontSize=6;strokeColor=#000000;strokeWidth=1;fillColor=none;" parent="1" vertex="1">
          <mxGeometry x="80" y="120" width="40" height="10" as="geometry" />
        </mxCell>
        <mxCell id="IwMMO9KyCTvZ_EGXPb7w-57" value="" style="rounded=0;whiteSpace=wrap;html=1;fontFamily=Lucida Console;fontSize=6;strokeColor=#000000;strokeWidth=1;fillColor=default;gradientColor=none;" parent="1" vertex="1">
          <mxGeometry x="40" y="200" width="120" height="10" as="geometry" />
        </mxCell>
        <mxCell id="IwMMO9KyCTvZ_EGXPb7w-58" value="" style="rounded=0;whiteSpace=wrap;html=1;fontFamily=Lucida Console;fontSize=6;strokeColor=#36393d;strokeWidth=1;fillColor=#cce5ff;" parent="1" vertex="1">
          <mxGeometry x="40" y="210" width="40" height="60" as="geometry" />
        </mxCell>
        <mxCell id="IwMMO9KyCTvZ_EGXPb7w-59" value="" style="rounded=0;whiteSpace=wrap;html=1;fontFamily=Lucida Console;fontSize=6;strokeColor=#000000;strokeWidth=1;fillColor=#81c4ae;" parent="1" vertex="1">
          <mxGeometry x="80" y="210" width="40" height="60" as="geometry" />
        </mxCell>
        <mxCell id="IwMMO9KyCTvZ_EGXPb7w-60" value="" style="rounded=0;whiteSpace=wrap;html=1;fontFamily=Lucida Console;fontSize=6;strokeColor=#000000;strokeWidth=1;fillColor=#81C4AE;" parent="1" vertex="1">
          <mxGeometry x="120" y="210" width="40" height="60" as="geometry" />
        </mxCell>
        <mxCell id="IwMMO9KyCTvZ_EGXPb7w-61" value="" style="endArrow=none;html=1;rounded=0;fontFamily=Lucida Console;fontSize=6;exitX=0;exitY=0;exitDx=0;exitDy=0;startArrow=none;entryX=1;entryY=0.669;entryDx=0;entryDy=0;entryPerimeter=0;" parent="1" source="IwMMO9KyCTvZ_EGXPb7w-66" target="IwMMO9KyCTvZ_EGXPb7w-60" edge="1">
          <mxGeometry width="50" height="50" relative="1" as="geometry">
            <mxPoint x="50" y="310" as="sourcePoint" />
            <mxPoint x="160" y="251" as="targetPoint" />
          </mxGeometry>
        </mxCell>
        <mxCell id="IwMMO9KyCTvZ_EGXPb7w-62" value="1" style="text;strokeColor=default;fillColor=#A8CCF7;html=1;fontSize=12;fontStyle=1;verticalAlign=bottom;align=center;fontFamily=Courier New;" parent="1" vertex="1">
          <mxGeometry x="40" y="210" width="40" height="20" as="geometry" />
        </mxCell>
        <mxCell id="IwMMO9KyCTvZ_EGXPb7w-63" value="3" style="text;strokeColor=default;fillColor=#A8CCF7;html=1;fontSize=12;fontStyle=1;verticalAlign=bottom;align=center;fontFamily=Courier New;" parent="1" vertex="1">
          <mxGeometry x="40" y="230" width="40" height="20" as="geometry" />
        </mxCell>
        <mxCell id="IwMMO9KyCTvZ_EGXPb7w-64" value="" style="rounded=0;whiteSpace=wrap;html=1;fontFamily=Lucida Console;fontSize=6;strokeColor=#000000;strokeWidth=1;fillColor=none;" parent="1" vertex="1">
          <mxGeometry x="80" y="200" width="40" height="10" as="geometry" />
        </mxCell>
        <mxCell id="IwMMO9KyCTvZ_EGXPb7w-66" value="4" style="text;strokeColor=default;fillColor=#A8CCF7;html=1;fontSize=12;fontStyle=1;verticalAlign=bottom;align=center;fontFamily=Courier New;" parent="1" vertex="1">
          <mxGeometry x="40" y="250" width="40" height="20" as="geometry" />
        </mxCell>
        <mxCell id="IwMMO9KyCTvZ_EGXPb7w-67" value="" style="endArrow=none;html=1;rounded=0;fontFamily=Lucida Console;fontSize=6;exitX=0;exitY=0;exitDx=0;exitDy=0;startArrow=none;" parent="1" source="IwMMO9KyCTvZ_EGXPb7w-63" edge="1">
          <mxGeometry width="50" height="50" relative="1" as="geometry">
            <mxPoint x="48.76000000000005" y="261.28000000000003" as="sourcePoint" />
            <mxPoint x="160" y="230" as="targetPoint" />
          </mxGeometry>
        </mxCell>
        <mxCell id="IwMMO9KyCTvZ_EGXPb7w-68" value="&lt;font style=&quot;font-size: 10px;&quot;&gt;left_relation&lt;/font&gt;" style="text;strokeColor=none;fillColor=none;html=1;fontSize=24;fontStyle=1;verticalAlign=middle;align=left;fontFamily=Courier New;" parent="1" vertex="1">
          <mxGeometry x="40" y="90" width="100" height="30" as="geometry" />
        </mxCell>
        <mxCell id="IwMMO9KyCTvZ_EGXPb7w-69" value="&lt;font style=&quot;font-size: 10px;&quot;&gt;right_relation&lt;/font&gt;" style="text;strokeColor=none;fillColor=none;html=1;fontSize=24;fontStyle=1;verticalAlign=middle;align=left;fontFamily=Courier New;" parent="1" vertex="1">
          <mxGeometry x="40" y="170" width="100" height="30" as="geometry" />
        </mxCell>
        <mxCell id="IwMMO9KyCTvZ_EGXPb7w-70" value="" style="rounded=0;whiteSpace=wrap;html=1;fontFamily=Lucida Console;fontSize=6;strokeColor=#000000;strokeWidth=1;fillColor=default;gradientColor=none;" parent="1" vertex="1">
          <mxGeometry x="239" y="120" width="200" height="10" as="geometry" />
        </mxCell>
        <mxCell id="IwMMO9KyCTvZ_EGXPb7w-71" value="" style="rounded=0;whiteSpace=wrap;html=1;fontFamily=Lucida Console;fontSize=6;strokeColor=#36393d;strokeWidth=1;fillColor=#cce5ff;" parent="1" vertex="1">
          <mxGeometry x="239" y="130" width="40" height="20" as="geometry" />
        </mxCell>
        <mxCell id="IwMMO9KyCTvZ_EGXPb7w-72" value="" style="rounded=0;whiteSpace=wrap;html=1;fontFamily=Lucida Console;fontSize=6;strokeColor=#000000;strokeWidth=1;fillColor=#F0B576;" parent="1" vertex="1">
          <mxGeometry x="279" y="130" width="40" height="20" as="geometry" />
        </mxCell>
        <mxCell id="IwMMO9KyCTvZ_EGXPb7w-73" value="" style="rounded=0;whiteSpace=wrap;html=1;fontFamily=Lucida Console;fontSize=6;strokeColor=#000000;strokeWidth=1;fillColor=#F0B576;" parent="1" vertex="1">
          <mxGeometry x="319" y="130" width="40" height="20" as="geometry" />
        </mxCell>
        <mxCell id="IwMMO9KyCTvZ_EGXPb7w-75" value="1" style="text;strokeColor=default;fillColor=#a8ccf7;html=1;fontSize=12;fontStyle=1;verticalAlign=bottom;align=center;fontFamily=Courier New;" parent="1" vertex="1">
          <mxGeometry x="239" y="130" width="40" height="20" as="geometry" />
        </mxCell>
        <mxCell id="IwMMO9KyCTvZ_EGXPb7w-77" value="" style="rounded=0;whiteSpace=wrap;html=1;fontFamily=Lucida Console;fontSize=6;strokeColor=#000000;strokeWidth=1;fillColor=none;" parent="1" vertex="1">
          <mxGeometry x="279" y="120" width="40" height="10" as="geometry" />
        </mxCell>
        <mxCell id="IwMMO9KyCTvZ_EGXPb7w-78" value="" style="rounded=0;whiteSpace=wrap;html=1;fontFamily=Lucida Console;fontSize=6;strokeColor=#000000;strokeWidth=1;fillColor=#81C4AE;" parent="1" vertex="1">
          <mxGeometry x="359" y="130" width="40" height="20" as="geometry" />
        </mxCell>
        <mxCell id="IwMMO9KyCTvZ_EGXPb7w-79" value="" style="rounded=0;whiteSpace=wrap;html=1;fontFamily=Lucida Console;fontSize=6;strokeColor=#000000;strokeWidth=1;fillColor=#81C4AE;" parent="1" vertex="1">
          <mxGeometry x="399" y="130" width="40" height="20" as="geometry" />
        </mxCell>
        <mxCell id="IwMMO9KyCTvZ_EGXPb7w-80" value="" style="rounded=0;whiteSpace=wrap;html=1;fontFamily=Lucida Console;fontSize=6;strokeColor=#000000;strokeWidth=1;fillColor=none;" parent="1" vertex="1">
          <mxGeometry x="359" y="120" width="40" height="10" as="geometry" />
        </mxCell>
        <mxCell id="IwMMO9KyCTvZ_EGXPb7w-81" value="&lt;font style=&quot;font-size: 10px;&quot;&gt;Inner Join&lt;/font&gt;" style="text;strokeColor=none;fillColor=none;html=1;fontSize=24;fontStyle=1;verticalAlign=middle;align=left;fontFamily=Courier New;" parent="1" vertex="1">
          <mxGeometry x="239" y="90" width="100" height="30" as="geometry" />
        </mxCell>
        <mxCell id="IwMMO9KyCTvZ_EGXPb7w-82" value="" style="rounded=0;whiteSpace=wrap;html=1;fontFamily=Lucida Console;fontSize=6;strokeColor=#000000;strokeWidth=1;fillColor=default;gradientColor=none;" parent="1" vertex="1">
          <mxGeometry x="40" y="390" width="120" height="10" as="geometry" />
        </mxCell>
        <mxCell id="IwMMO9KyCTvZ_EGXPb7w-83" value="" style="rounded=0;whiteSpace=wrap;html=1;fontFamily=Lucida Console;fontSize=6;strokeColor=#36393d;strokeWidth=1;fillColor=#cce5ff;" parent="1" vertex="1">
          <mxGeometry x="40" y="400" width="40" height="40" as="geometry" />
        </mxCell>
        <mxCell id="IwMMO9KyCTvZ_EGXPb7w-84" value="" style="rounded=0;whiteSpace=wrap;html=1;fontFamily=Lucida Console;fontSize=6;strokeColor=#000000;strokeWidth=1;fillColor=#F0B576;" parent="1" vertex="1">
          <mxGeometry x="80" y="400" width="40" height="40" as="geometry" />
        </mxCell>
        <mxCell id="IwMMO9KyCTvZ_EGXPb7w-85" value="" style="rounded=0;whiteSpace=wrap;html=1;fontFamily=Lucida Console;fontSize=6;strokeColor=#000000;strokeWidth=1;fillColor=#F0B576;" parent="1" vertex="1">
          <mxGeometry x="120" y="400" width="40" height="40" as="geometry" />
        </mxCell>
        <mxCell id="IwMMO9KyCTvZ_EGXPb7w-86" value="" style="endArrow=none;html=1;rounded=0;fontFamily=Lucida Console;fontSize=6;entryX=1;entryY=0.5;entryDx=0;entryDy=0;exitX=0;exitY=0.5;exitDx=0;exitDy=0;startArrow=none;" parent="1" source="IwMMO9KyCTvZ_EGXPb7w-83" target="IwMMO9KyCTvZ_EGXPb7w-85" edge="1">
          <mxGeometry width="50" height="50" relative="1" as="geometry">
            <mxPoint x="50" y="500" as="sourcePoint" />
            <mxPoint x="100" y="450" as="targetPoint" />
          </mxGeometry>
        </mxCell>
        <mxCell id="IwMMO9KyCTvZ_EGXPb7w-87" value="1" style="text;strokeColor=default;fillColor=#A8CCF7;html=1;fontSize=12;fontStyle=1;verticalAlign=middle;align=center;fontFamily=Lucida Console;" parent="1" vertex="1">
          <mxGeometry x="40" y="400" width="40" height="20" as="geometry" />
        </mxCell>
        <mxCell id="IwMMO9KyCTvZ_EGXPb7w-88" value="2" style="text;strokeColor=default;fillColor=#A8CCF7;html=1;fontSize=12;fontStyle=1;verticalAlign=middle;align=center;fontFamily=Lucida Console;" parent="1" vertex="1">
          <mxGeometry x="40" y="420" width="40" height="20" as="geometry" />
        </mxCell>
        <mxCell id="IwMMO9KyCTvZ_EGXPb7w-89" value="" style="rounded=0;whiteSpace=wrap;html=1;fontFamily=Lucida Console;fontSize=6;strokeColor=#000000;strokeWidth=1;fillColor=none;" parent="1" vertex="1">
          <mxGeometry x="80" y="390" width="40" height="10" as="geometry" />
        </mxCell>
        <mxCell id="IwMMO9KyCTvZ_EGXPb7w-90" value="" style="rounded=0;whiteSpace=wrap;html=1;fontFamily=Lucida Console;fontSize=6;strokeColor=#000000;strokeWidth=1;fillColor=default;gradientColor=none;" parent="1" vertex="1">
          <mxGeometry x="40" y="470" width="120" height="10" as="geometry" />
        </mxCell>
        <mxCell id="IwMMO9KyCTvZ_EGXPb7w-91" value="" style="rounded=0;whiteSpace=wrap;html=1;fontFamily=Lucida Console;fontSize=6;strokeColor=#36393d;strokeWidth=1;fillColor=#cce5ff;" parent="1" vertex="1">
          <mxGeometry x="40" y="480" width="40" height="60" as="geometry" />
        </mxCell>
        <mxCell id="IwMMO9KyCTvZ_EGXPb7w-92" value="" style="rounded=0;whiteSpace=wrap;html=1;fontFamily=Lucida Console;fontSize=6;strokeColor=#000000;strokeWidth=1;fillColor=#81C4AE;" parent="1" vertex="1">
          <mxGeometry x="80" y="480" width="40" height="60" as="geometry" />
        </mxCell>
        <mxCell id="IwMMO9KyCTvZ_EGXPb7w-93" value="" style="rounded=0;whiteSpace=wrap;html=1;fontFamily=Lucida Console;fontSize=6;strokeColor=#000000;strokeWidth=1;fillColor=#81C4AE;" parent="1" vertex="1">
          <mxGeometry x="120" y="480" width="40" height="60" as="geometry" />
        </mxCell>
        <mxCell id="IwMMO9KyCTvZ_EGXPb7w-94" value="" style="endArrow=none;html=1;rounded=0;fontFamily=Lucida Console;fontSize=6;exitX=0;exitY=0;exitDx=0;exitDy=0;startArrow=none;entryX=1;entryY=0.669;entryDx=0;entryDy=0;entryPerimeter=0;" parent="1" source="IwMMO9KyCTvZ_EGXPb7w-98" target="IwMMO9KyCTvZ_EGXPb7w-93" edge="1">
          <mxGeometry width="50" height="50" relative="1" as="geometry">
            <mxPoint x="50" y="580" as="sourcePoint" />
            <mxPoint x="160" y="521" as="targetPoint" />
          </mxGeometry>
        </mxCell>
        <mxCell id="IwMMO9KyCTvZ_EGXPb7w-95" value="1" style="text;strokeColor=default;fillColor=#A8CCF7;html=1;fontSize=12;fontStyle=1;verticalAlign=middle;align=center;fontFamily=Lucida Console;" parent="1" vertex="1">
          <mxGeometry x="40" y="480" width="40" height="20" as="geometry" />
        </mxCell>
        <mxCell id="IwMMO9KyCTvZ_EGXPb7w-96" value="3" style="text;strokeColor=default;fillColor=#A8CCF7;html=1;fontSize=12;fontStyle=1;verticalAlign=middle;align=center;fontFamily=Courier New;" parent="1" vertex="1">
          <mxGeometry x="40" y="500" width="40" height="20" as="geometry" />
        </mxCell>
        <mxCell id="IwMMO9KyCTvZ_EGXPb7w-97" value="" style="rounded=0;whiteSpace=wrap;html=1;fontFamily=Lucida Console;fontSize=6;strokeColor=#000000;strokeWidth=1;fillColor=none;" parent="1" vertex="1">
          <mxGeometry x="80" y="470" width="40" height="10" as="geometry" />
        </mxCell>
        <mxCell id="IwMMO9KyCTvZ_EGXPb7w-98" value="4" style="text;strokeColor=default;fillColor=#A8CCF7;html=1;fontSize=12;fontStyle=1;verticalAlign=middle;align=center;fontFamily=Courier New;" parent="1" vertex="1">
          <mxGeometry x="40" y="520" width="40" height="20" as="geometry" />
        </mxCell>
        <mxCell id="IwMMO9KyCTvZ_EGXPb7w-99" value="" style="endArrow=none;html=1;rounded=0;fontFamily=Lucida Console;fontSize=6;exitX=0;exitY=0;exitDx=0;exitDy=0;startArrow=none;" parent="1" source="IwMMO9KyCTvZ_EGXPb7w-96" edge="1">
          <mxGeometry width="50" height="50" relative="1" as="geometry">
            <mxPoint x="48.76000000000005" y="531.28" as="sourcePoint" />
            <mxPoint x="160" y="500" as="targetPoint" />
          </mxGeometry>
        </mxCell>
        <mxCell id="IwMMO9KyCTvZ_EGXPb7w-100" value="&lt;font style=&quot;font-size: 10px;&quot;&gt;left_relation&lt;/font&gt;" style="text;strokeColor=none;fillColor=none;html=1;fontSize=24;fontStyle=1;verticalAlign=middle;align=left;fontFamily=Courier New;" parent="1" vertex="1">
          <mxGeometry x="40" y="360" width="100" height="30" as="geometry" />
        </mxCell>
        <mxCell id="IwMMO9KyCTvZ_EGXPb7w-101" value="&lt;font style=&quot;font-size: 10px;&quot;&gt;right_relation&lt;/font&gt;" style="text;strokeColor=none;fillColor=none;html=1;fontSize=24;fontStyle=1;verticalAlign=middle;align=left;fontFamily=Courier New;" parent="1" vertex="1">
          <mxGeometry x="40" y="440" width="100" height="30" as="geometry" />
        </mxCell>
        <mxCell id="IwMMO9KyCTvZ_EGXPb7w-102" value="" style="rounded=0;whiteSpace=wrap;html=1;fontFamily=Lucida Console;fontSize=6;strokeColor=#000000;strokeWidth=1;fillColor=default;gradientColor=none;" parent="1" vertex="1">
          <mxGeometry x="239" y="390" width="200" height="10" as="geometry" />
        </mxCell>
        <mxCell id="IwMMO9KyCTvZ_EGXPb7w-103" value="" style="rounded=0;whiteSpace=wrap;html=1;fontFamily=Lucida Console;fontSize=6;strokeColor=#36393d;strokeWidth=1;fillColor=#cce5ff;" parent="1" vertex="1">
          <mxGeometry x="239" y="400" width="40" height="40" as="geometry" />
        </mxCell>
        <mxCell id="IwMMO9KyCTvZ_EGXPb7w-104" value="" style="rounded=0;whiteSpace=wrap;html=1;fontFamily=Lucida Console;fontSize=6;strokeColor=#000000;strokeWidth=1;fillColor=#F0B576;" parent="1" vertex="1">
          <mxGeometry x="279" y="400" width="40" height="40" as="geometry" />
        </mxCell>
        <mxCell id="IwMMO9KyCTvZ_EGXPb7w-105" value="" style="rounded=0;whiteSpace=wrap;html=1;fontFamily=Lucida Console;fontSize=6;strokeColor=#000000;strokeWidth=1;fillColor=#F0B576;" parent="1" vertex="1">
          <mxGeometry x="319" y="400" width="40" height="40" as="geometry" />
        </mxCell>
        <mxCell id="IwMMO9KyCTvZ_EGXPb7w-106" value="1" style="text;strokeColor=default;fillColor=#A8CCF7;html=1;fontSize=12;fontStyle=1;verticalAlign=bottom;align=center;fontFamily=Lucida Console;" parent="1" vertex="1">
          <mxGeometry x="239" y="400" width="40" height="20" as="geometry" />
        </mxCell>
        <mxCell id="IwMMO9KyCTvZ_EGXPb7w-107" value="" style="rounded=0;whiteSpace=wrap;html=1;fontFamily=Lucida Console;fontSize=6;strokeColor=#000000;strokeWidth=1;fillColor=none;" parent="1" vertex="1">
          <mxGeometry x="279" y="390" width="40" height="10" as="geometry" />
        </mxCell>
        <mxCell id="IwMMO9KyCTvZ_EGXPb7w-108" value="" style="rounded=0;whiteSpace=wrap;html=1;fontFamily=Lucida Console;fontSize=6;strokeColor=#000000;strokeWidth=1;fillColor=#81C4AE;" parent="1" vertex="1">
          <mxGeometry x="359" y="400" width="40" height="20" as="geometry" />
        </mxCell>
        <mxCell id="IwMMO9KyCTvZ_EGXPb7w-109" value="" style="rounded=0;whiteSpace=wrap;html=1;fontFamily=Lucida Console;fontSize=6;strokeColor=#000000;strokeWidth=1;fillColor=#81C4AE;" parent="1" vertex="1">
          <mxGeometry x="399" y="400" width="40" height="20" as="geometry" />
        </mxCell>
        <mxCell id="IwMMO9KyCTvZ_EGXPb7w-110" value="" style="rounded=0;whiteSpace=wrap;html=1;fontFamily=Lucida Console;fontSize=6;strokeColor=#000000;strokeWidth=1;fillColor=none;" parent="1" vertex="1">
          <mxGeometry x="359" y="390" width="40" height="10" as="geometry" />
        </mxCell>
        <mxCell id="IwMMO9KyCTvZ_EGXPb7w-111" value="&lt;font style=&quot;font-size: 10px;&quot;&gt;Left Join&lt;/font&gt;" style="text;strokeColor=none;fillColor=none;html=1;fontSize=24;fontStyle=1;verticalAlign=middle;align=left;fontFamily=Courier New;" parent="1" vertex="1">
          <mxGeometry x="239" y="360" width="100" height="30" as="geometry" />
        </mxCell>
        <mxCell id="IwMMO9KyCTvZ_EGXPb7w-112" value="2" style="text;strokeColor=default;fillColor=#A8CCF7;html=1;fontSize=12;fontStyle=1;verticalAlign=bottom;align=center;fontFamily=Courier New;" parent="1" vertex="1">
          <mxGeometry x="239" y="420" width="40" height="20" as="geometry" />
        </mxCell>
        <mxCell id="IwMMO9KyCTvZ_EGXPb7w-113" value="" style="endArrow=none;html=1;rounded=0;fontFamily=Lucida Console;fontSize=6;entryX=1;entryY=0.5;entryDx=0;entryDy=0;exitX=0;exitY=0.5;exitDx=0;exitDy=0;startArrow=none;" parent="1" edge="1">
          <mxGeometry width="50" height="50" relative="1" as="geometry">
            <mxPoint x="239" y="420" as="sourcePoint" />
            <mxPoint x="359" y="420" as="targetPoint" />
          </mxGeometry>
        </mxCell>
        <mxCell id="IwMMO9KyCTvZ_EGXPb7w-115" value="" style="rounded=0;whiteSpace=wrap;html=1;fontFamily=Lucida Console;fontSize=6;strokeColor=#000000;strokeWidth=1;fillColor=none;" parent="1" vertex="1">
          <mxGeometry x="399" y="420" width="40" height="20" as="geometry" />
        </mxCell>
        <mxCell id="IwMMO9KyCTvZ_EGXPb7w-116" value="" style="rounded=0;whiteSpace=wrap;html=1;fontFamily=Lucida Console;fontSize=6;strokeColor=#000000;strokeWidth=1;fillColor=none;" parent="1" vertex="1">
          <mxGeometry x="359" y="420" width="40" height="20" as="geometry" />
        </mxCell>
        <mxCell id="IwMMO9KyCTvZ_EGXPb7w-117" value="" style="rounded=0;whiteSpace=wrap;html=1;fontFamily=Courier New;fontSize=6;strokeColor=#000000;strokeWidth=1;fillColor=default;gradientColor=none;" parent="1" vertex="1">
          <mxGeometry x="40" y="640" width="120" height="10" as="geometry" />
        </mxCell>
        <mxCell id="IwMMO9KyCTvZ_EGXPb7w-118" value="" style="rounded=0;whiteSpace=wrap;html=1;fontFamily=Courier New;fontSize=6;strokeColor=#36393d;strokeWidth=1;fillColor=#cce5ff;" parent="1" vertex="1">
          <mxGeometry x="40" y="650" width="40" height="40" as="geometry" />
        </mxCell>
        <mxCell id="IwMMO9KyCTvZ_EGXPb7w-119" value="" style="rounded=0;whiteSpace=wrap;html=1;fontFamily=Courier New;fontSize=6;strokeColor=#000000;strokeWidth=1;fillColor=#F0B576;" parent="1" vertex="1">
          <mxGeometry x="80" y="650" width="40" height="40" as="geometry" />
        </mxCell>
        <mxCell id="IwMMO9KyCTvZ_EGXPb7w-120" value="" style="rounded=0;whiteSpace=wrap;html=1;fontFamily=Courier New;fontSize=6;strokeColor=#000000;strokeWidth=1;fillColor=#F0B576;" parent="1" vertex="1">
          <mxGeometry x="120" y="650" width="40" height="40" as="geometry" />
        </mxCell>
        <mxCell id="IwMMO9KyCTvZ_EGXPb7w-121" value="" style="endArrow=none;html=1;rounded=0;fontFamily=Courier New;fontSize=6;entryX=1;entryY=0.5;entryDx=0;entryDy=0;exitX=0;exitY=0.5;exitDx=0;exitDy=0;startArrow=none;" parent="1" source="IwMMO9KyCTvZ_EGXPb7w-118" target="IwMMO9KyCTvZ_EGXPb7w-120" edge="1">
          <mxGeometry width="50" height="50" relative="1" as="geometry">
            <mxPoint x="50" y="750" as="sourcePoint" />
            <mxPoint x="100" y="700" as="targetPoint" />
          </mxGeometry>
        </mxCell>
        <mxCell id="IwMMO9KyCTvZ_EGXPb7w-122" value="1" style="text;strokeColor=default;fillColor=#A8CCF7;html=1;fontSize=12;fontStyle=1;verticalAlign=middle;align=center;fontFamily=Courier New;" parent="1" vertex="1">
          <mxGeometry x="40" y="650" width="40" height="20" as="geometry" />
        </mxCell>
        <mxCell id="IwMMO9KyCTvZ_EGXPb7w-123" value="2" style="text;strokeColor=default;fillColor=#A8CCF7;html=1;fontSize=12;fontStyle=1;verticalAlign=middle;align=center;fontFamily=Courier New;" parent="1" vertex="1">
          <mxGeometry x="40" y="670" width="40" height="20" as="geometry" />
        </mxCell>
        <mxCell id="IwMMO9KyCTvZ_EGXPb7w-124" value="" style="rounded=0;whiteSpace=wrap;html=1;fontFamily=Courier New;fontSize=6;strokeColor=#000000;strokeWidth=1;fillColor=none;" parent="1" vertex="1">
          <mxGeometry x="80" y="640" width="40" height="10" as="geometry" />
        </mxCell>
        <mxCell id="IwMMO9KyCTvZ_EGXPb7w-125" value="" style="rounded=0;whiteSpace=wrap;html=1;fontFamily=Courier New;fontSize=6;strokeColor=#000000;strokeWidth=1;fillColor=default;gradientColor=none;" parent="1" vertex="1">
          <mxGeometry x="40" y="720" width="120" height="10" as="geometry" />
        </mxCell>
        <mxCell id="IwMMO9KyCTvZ_EGXPb7w-126" value="" style="rounded=0;whiteSpace=wrap;html=1;fontFamily=Courier New;fontSize=6;strokeColor=#36393d;strokeWidth=1;fillColor=#cce5ff;" parent="1" vertex="1">
          <mxGeometry x="40" y="730" width="40" height="60" as="geometry" />
        </mxCell>
        <mxCell id="IwMMO9KyCTvZ_EGXPb7w-127" value="" style="rounded=0;whiteSpace=wrap;html=1;fontFamily=Courier New;fontSize=6;strokeColor=#000000;strokeWidth=1;fillColor=#81C4AE;" parent="1" vertex="1">
          <mxGeometry x="80" y="730" width="40" height="60" as="geometry" />
        </mxCell>
        <mxCell id="IwMMO9KyCTvZ_EGXPb7w-128" value="" style="rounded=0;whiteSpace=wrap;html=1;fontFamily=Courier New;fontSize=6;strokeColor=#000000;strokeWidth=1;fillColor=#81C4AE;" parent="1" vertex="1">
          <mxGeometry x="120" y="730" width="40" height="60" as="geometry" />
        </mxCell>
        <mxCell id="IwMMO9KyCTvZ_EGXPb7w-129" value="" style="endArrow=none;html=1;rounded=0;fontFamily=Courier New;fontSize=6;exitX=0;exitY=0;exitDx=0;exitDy=0;startArrow=none;entryX=1;entryY=0.669;entryDx=0;entryDy=0;entryPerimeter=0;" parent="1" source="IwMMO9KyCTvZ_EGXPb7w-133" target="IwMMO9KyCTvZ_EGXPb7w-128" edge="1">
          <mxGeometry width="50" height="50" relative="1" as="geometry">
            <mxPoint x="50" y="830" as="sourcePoint" />
            <mxPoint x="160" y="771" as="targetPoint" />
          </mxGeometry>
        </mxCell>
        <mxCell id="IwMMO9KyCTvZ_EGXPb7w-130" value="1" style="text;strokeColor=default;fillColor=#A8CCF7;html=1;fontSize=12;fontStyle=1;verticalAlign=middle;align=center;fontFamily=Courier New;" parent="1" vertex="1">
          <mxGeometry x="40" y="730" width="40" height="20" as="geometry" />
        </mxCell>
        <mxCell id="IwMMO9KyCTvZ_EGXPb7w-131" value="3" style="text;strokeColor=default;fillColor=#A8CCF7;html=1;fontSize=12;fontStyle=1;verticalAlign=middle;align=center;fontFamily=Courier New;" parent="1" vertex="1">
          <mxGeometry x="40" y="750" width="40" height="20" as="geometry" />
        </mxCell>
        <mxCell id="IwMMO9KyCTvZ_EGXPb7w-132" value="" style="rounded=0;whiteSpace=wrap;html=1;fontFamily=Courier New;fontSize=6;strokeColor=#000000;strokeWidth=1;fillColor=none;" parent="1" vertex="1">
          <mxGeometry x="80" y="720" width="40" height="10" as="geometry" />
        </mxCell>
        <mxCell id="IwMMO9KyCTvZ_EGXPb7w-133" value="4" style="text;strokeColor=default;fillColor=#A8CCF7;html=1;fontSize=12;fontStyle=1;verticalAlign=middle;align=center;fontFamily=Courier New;" parent="1" vertex="1">
          <mxGeometry x="40" y="770" width="40" height="20" as="geometry" />
        </mxCell>
        <mxCell id="IwMMO9KyCTvZ_EGXPb7w-134" value="" style="endArrow=none;html=1;rounded=0;fontFamily=Courier New;fontSize=6;exitX=0;exitY=0;exitDx=0;exitDy=0;startArrow=none;" parent="1" source="IwMMO9KyCTvZ_EGXPb7w-131" edge="1">
          <mxGeometry width="50" height="50" relative="1" as="geometry">
            <mxPoint x="48.76000000000005" y="781.28" as="sourcePoint" />
            <mxPoint x="160" y="750" as="targetPoint" />
          </mxGeometry>
        </mxCell>
        <mxCell id="IwMMO9KyCTvZ_EGXPb7w-135" value="&lt;font style=&quot;font-size: 10px;&quot;&gt;left_relation&lt;/font&gt;" style="text;strokeColor=none;fillColor=none;html=1;fontSize=24;fontStyle=1;verticalAlign=middle;align=left;fontFamily=Courier New;" parent="1" vertex="1">
          <mxGeometry x="40" y="610" width="100" height="30" as="geometry" />
        </mxCell>
        <mxCell id="IwMMO9KyCTvZ_EGXPb7w-136" value="&lt;font style=&quot;font-size: 10px;&quot;&gt;right_relation&lt;/font&gt;" style="text;strokeColor=none;fillColor=none;html=1;fontSize=24;fontStyle=1;verticalAlign=middle;align=left;fontFamily=Courier New;" parent="1" vertex="1">
          <mxGeometry x="40" y="690" width="100" height="30" as="geometry" />
        </mxCell>
        <mxCell id="IwMMO9KyCTvZ_EGXPb7w-137" value="" style="rounded=0;whiteSpace=wrap;html=1;fontFamily=Courier New;fontSize=6;strokeColor=#000000;strokeWidth=1;fillColor=default;gradientColor=none;" parent="1" vertex="1">
          <mxGeometry x="241" y="640" width="120" height="10" as="geometry" />
        </mxCell>
        <mxCell id="IwMMO9KyCTvZ_EGXPb7w-138" value="" style="rounded=0;whiteSpace=wrap;html=1;fontFamily=Courier New;fontSize=6;strokeColor=#36393d;strokeWidth=1;fillColor=#cce5ff;" parent="1" vertex="1">
          <mxGeometry x="241" y="650" width="40" height="120" as="geometry" />
        </mxCell>
        <mxCell id="IwMMO9KyCTvZ_EGXPb7w-139" value="" style="rounded=0;whiteSpace=wrap;html=1;fontFamily=Courier New;fontSize=6;strokeColor=#000000;strokeWidth=1;fillColor=#F0B576;" parent="1" vertex="1">
          <mxGeometry x="281" y="650" width="40" height="120" as="geometry" />
        </mxCell>
        <mxCell id="IwMMO9KyCTvZ_EGXPb7w-140" value="" style="rounded=0;whiteSpace=wrap;html=1;fontFamily=Courier New;fontSize=6;strokeColor=#000000;strokeWidth=1;fillColor=#F0B576;" parent="1" vertex="1">
          <mxGeometry x="321" y="650" width="40" height="120" as="geometry" />
        </mxCell>
        <mxCell id="IwMMO9KyCTvZ_EGXPb7w-141" value="1" style="text;strokeColor=default;fillColor=#A8CCF7;html=1;fontSize=12;fontStyle=1;verticalAlign=bottom;align=center;fontFamily=Courier New;" parent="1" vertex="1">
          <mxGeometry x="241" y="650" width="40" height="20" as="geometry" />
        </mxCell>
        <mxCell id="IwMMO9KyCTvZ_EGXPb7w-142" value="" style="rounded=0;whiteSpace=wrap;html=1;fontFamily=Courier New;fontSize=6;strokeColor=#000000;strokeWidth=1;fillColor=none;" parent="1" vertex="1">
          <mxGeometry x="281" y="640" width="40" height="10" as="geometry" />
        </mxCell>
        <mxCell id="IwMMO9KyCTvZ_EGXPb7w-146" value="&lt;font style=&quot;font-size: 10px;&quot;&gt;Cross Join&lt;/font&gt;" style="text;strokeColor=none;fillColor=none;html=1;fontSize=24;fontStyle=1;verticalAlign=middle;align=left;fontFamily=Courier New;" parent="1" vertex="1">
          <mxGeometry x="241" y="610" width="100" height="30" as="geometry" />
        </mxCell>
        <mxCell id="IwMMO9KyCTvZ_EGXPb7w-147" value="1" style="text;strokeColor=default;fillColor=#A8CCF7;html=1;fontSize=12;fontStyle=1;verticalAlign=bottom;align=center;fontFamily=Courier New;" parent="1" vertex="1">
          <mxGeometry x="241" y="670" width="40" height="20" as="geometry" />
        </mxCell>
        <mxCell id="IwMMO9KyCTvZ_EGXPb7w-155" value="" style="rounded=0;whiteSpace=wrap;html=1;fontFamily=Lucida Console;fontSize=6;strokeColor=#000000;strokeWidth=1;fillColor=default;gradientColor=none;" parent="1" vertex="1">
          <mxGeometry x="361" y="640" width="120" height="10" as="geometry" />
        </mxCell>
        <mxCell id="IwMMO9KyCTvZ_EGXPb7w-156" value="" style="rounded=0;whiteSpace=wrap;html=1;fontFamily=Courier New;fontSize=6;strokeColor=#36393d;strokeWidth=1;fillColor=#cce5ff;" parent="1" vertex="1">
          <mxGeometry x="361" y="650" width="40" height="120" as="geometry" />
        </mxCell>
        <mxCell id="IwMMO9KyCTvZ_EGXPb7w-157" value="" style="rounded=0;whiteSpace=wrap;html=1;fontFamily=Courier New;fontSize=6;strokeColor=#000000;strokeWidth=1;fillColor=#81C4AE;" parent="1" vertex="1">
          <mxGeometry x="401" y="650" width="40" height="120" as="geometry" />
        </mxCell>
        <mxCell id="IwMMO9KyCTvZ_EGXPb7w-158" value="" style="rounded=0;whiteSpace=wrap;html=1;fontFamily=Lucida Console;fontSize=6;strokeColor=#000000;strokeWidth=1;fillColor=#81C4AE;" parent="1" vertex="1">
          <mxGeometry x="441" y="650" width="40" height="120" as="geometry" />
        </mxCell>
        <mxCell id="IwMMO9KyCTvZ_EGXPb7w-159" value="" style="endArrow=none;html=1;rounded=0;fontFamily=Lucida Console;fontSize=6;startArrow=none;" parent="1" edge="1">
          <mxGeometry width="50" height="50" relative="1" as="geometry">
            <mxPoint x="241" y="690" as="sourcePoint" />
            <mxPoint x="481" y="690" as="targetPoint" />
          </mxGeometry>
        </mxCell>
        <mxCell id="IwMMO9KyCTvZ_EGXPb7w-160" value="1" style="text;strokeColor=default;fillColor=#A8CCF7;html=1;fontSize=12;fontStyle=1;verticalAlign=bottom;align=center;fontFamily=Courier New;" parent="1" vertex="1">
          <mxGeometry x="361" y="650" width="40" height="20" as="geometry" />
        </mxCell>
        <mxCell id="IwMMO9KyCTvZ_EGXPb7w-161" value="3" style="text;strokeColor=default;fillColor=#A8CCF7;html=1;fontSize=12;fontStyle=1;verticalAlign=bottom;align=center;fontFamily=Courier New;" parent="1" vertex="1">
          <mxGeometry x="361" y="670" width="40" height="20" as="geometry" />
        </mxCell>
        <mxCell id="IwMMO9KyCTvZ_EGXPb7w-162" value="" style="rounded=0;whiteSpace=wrap;html=1;fontFamily=Courier New;fontSize=6;strokeColor=#000000;strokeWidth=1;fillColor=none;" parent="1" vertex="1">
          <mxGeometry x="401" y="640" width="40" height="10" as="geometry" />
        </mxCell>
        <mxCell id="IwMMO9KyCTvZ_EGXPb7w-163" value="4" style="text;strokeColor=default;fillColor=#A8CCF7;html=1;fontSize=12;fontStyle=1;verticalAlign=bottom;align=center;fontFamily=Courier New;" parent="1" vertex="1">
          <mxGeometry x="361" y="690" width="40" height="20" as="geometry" />
        </mxCell>
        <mxCell id="IwMMO9KyCTvZ_EGXPb7w-165" value="" style="endArrow=none;html=1;rounded=0;fontFamily=Lucida Console;fontSize=6;startArrow=none;" parent="1" edge="1">
          <mxGeometry width="50" height="50" relative="1" as="geometry">
            <mxPoint x="241" y="710" as="sourcePoint" />
            <mxPoint x="481" y="710" as="targetPoint" />
          </mxGeometry>
        </mxCell>
        <mxCell id="IwMMO9KyCTvZ_EGXPb7w-166" value="" style="endArrow=none;html=1;rounded=0;fontFamily=Lucida Console;fontSize=6;startArrow=none;" parent="1" edge="1">
          <mxGeometry width="50" height="50" relative="1" as="geometry">
            <mxPoint x="241" y="730" as="sourcePoint" />
            <mxPoint x="481" y="730" as="targetPoint" />
          </mxGeometry>
        </mxCell>
        <mxCell id="IwMMO9KyCTvZ_EGXPb7w-167" value="" style="endArrow=none;html=1;rounded=0;fontFamily=Lucida Console;fontSize=6;startArrow=none;" parent="1" edge="1">
          <mxGeometry width="50" height="50" relative="1" as="geometry">
            <mxPoint x="241" y="750" as="sourcePoint" />
            <mxPoint x="481" y="750" as="targetPoint" />
          </mxGeometry>
        </mxCell>
        <mxCell id="IwMMO9KyCTvZ_EGXPb7w-168" value="" style="endArrow=none;html=1;rounded=0;fontFamily=Lucida Console;fontSize=6;startArrow=none;" parent="1" edge="1">
          <mxGeometry width="50" height="50" relative="1" as="geometry">
            <mxPoint x="241" y="670" as="sourcePoint" />
            <mxPoint x="481" y="670" as="targetPoint" />
          </mxGeometry>
        </mxCell>
        <mxCell id="IwMMO9KyCTvZ_EGXPb7w-169" value="1" style="text;strokeColor=default;fillColor=#A8CCF7;html=1;fontSize=12;fontStyle=1;verticalAlign=bottom;align=center;fontFamily=Courier New;" parent="1" vertex="1">
          <mxGeometry x="361" y="710" width="40" height="20" as="geometry" />
        </mxCell>
        <mxCell id="IwMMO9KyCTvZ_EGXPb7w-170" value="3" style="text;strokeColor=default;fillColor=#A8CCF7;html=1;fontSize=12;fontStyle=1;verticalAlign=bottom;align=center;fontFamily=Courier New;" parent="1" vertex="1">
          <mxGeometry x="361" y="730" width="40" height="20" as="geometry" />
        </mxCell>
        <mxCell id="IwMMO9KyCTvZ_EGXPb7w-171" value="4" style="text;strokeColor=default;fillColor=#A8CCF7;html=1;fontSize=12;fontStyle=1;verticalAlign=bottom;align=center;fontFamily=Courier New;" parent="1" vertex="1">
          <mxGeometry x="361" y="750" width="40" height="20" as="geometry" />
        </mxCell>
        <mxCell id="IwMMO9KyCTvZ_EGXPb7w-176" value="1" style="text;strokeColor=default;fillColor=#A8CCF7;html=1;fontSize=12;fontStyle=1;verticalAlign=bottom;align=center;fontFamily=Courier New;" parent="1" vertex="1">
          <mxGeometry x="241" y="690" width="40" height="20" as="geometry" />
        </mxCell>
        <mxCell id="IwMMO9KyCTvZ_EGXPb7w-177" value="2" style="text;strokeColor=none;fillColor=none;html=1;fontSize=12;fontStyle=1;verticalAlign=bottom;align=center;fontFamily=Courier New;" parent="1" vertex="1">
          <mxGeometry x="241" y="710" width="40" height="20" as="geometry" />
        </mxCell>
        <mxCell id="IwMMO9KyCTvZ_EGXPb7w-178" value="2" style="text;strokeColor=none;fillColor=none;html=1;fontSize=12;fontStyle=1;verticalAlign=bottom;align=center;fontFamily=Courier New;" parent="1" vertex="1">
          <mxGeometry x="241" y="730" width="40" height="20" as="geometry" />
        </mxCell>
        <mxCell id="IwMMO9KyCTvZ_EGXPb7w-179" value="2" style="text;strokeColor=none;fillColor=none;html=1;fontSize=12;fontStyle=1;verticalAlign=bottom;align=center;fontFamily=Courier New;" parent="1" vertex="1">
          <mxGeometry x="241" y="750" width="40" height="20" as="geometry" />
        </mxCell>
        <mxCell id="IwMMO9KyCTvZ_EGXPb7w-180" value="" style="rounded=0;whiteSpace=wrap;html=1;fontFamily=Courier New;fontSize=6;strokeColor=#000000;strokeWidth=1;fillColor=default;gradientColor=none;" parent="1" vertex="1">
          <mxGeometry x="40" y="910" width="120" height="10" as="geometry" />
        </mxCell>
        <mxCell id="IwMMO9KyCTvZ_EGXPb7w-181" value="" style="rounded=0;whiteSpace=wrap;html=1;fontFamily=Courier New;fontSize=6;strokeColor=#36393d;strokeWidth=1;fillColor=#cce5ff;" parent="1" vertex="1">
          <mxGeometry x="40" y="920" width="40" height="40" as="geometry" />
        </mxCell>
        <mxCell id="IwMMO9KyCTvZ_EGXPb7w-182" value="" style="rounded=0;whiteSpace=wrap;html=1;fontFamily=Courier New;fontSize=6;strokeColor=#000000;strokeWidth=1;fillColor=#F0B576;" parent="1" vertex="1">
          <mxGeometry x="80" y="920" width="40" height="40" as="geometry" />
        </mxCell>
        <mxCell id="IwMMO9KyCTvZ_EGXPb7w-183" value="" style="rounded=0;whiteSpace=wrap;html=1;fontFamily=Courier New;fontSize=6;strokeColor=#000000;strokeWidth=1;fillColor=#F0B576;" parent="1" vertex="1">
          <mxGeometry x="120" y="920" width="40" height="40" as="geometry" />
        </mxCell>
        <mxCell id="IwMMO9KyCTvZ_EGXPb7w-184" value="" style="endArrow=none;html=1;rounded=0;fontFamily=Courier New;fontSize=6;entryX=1;entryY=0.5;entryDx=0;entryDy=0;exitX=0;exitY=0.5;exitDx=0;exitDy=0;startArrow=none;" parent="1" source="IwMMO9KyCTvZ_EGXPb7w-181" target="IwMMO9KyCTvZ_EGXPb7w-183" edge="1">
          <mxGeometry width="50" height="50" relative="1" as="geometry">
            <mxPoint x="50" y="1020" as="sourcePoint" />
            <mxPoint x="100" y="970" as="targetPoint" />
          </mxGeometry>
        </mxCell>
        <mxCell id="IwMMO9KyCTvZ_EGXPb7w-185" value="1" style="text;strokeColor=default;fillColor=#A8CCF7;html=1;fontSize=12;fontStyle=1;verticalAlign=middle;align=center;fontFamily=Courier New;" parent="1" vertex="1">
          <mxGeometry x="40" y="920" width="40" height="20" as="geometry" />
        </mxCell>
        <mxCell id="IwMMO9KyCTvZ_EGXPb7w-186" value="2" style="text;strokeColor=default;fillColor=#A8CCF7;html=1;fontSize=12;fontStyle=1;verticalAlign=middle;align=center;fontFamily=Courier New;" parent="1" vertex="1">
          <mxGeometry x="40" y="940" width="40" height="20" as="geometry" />
        </mxCell>
        <mxCell id="IwMMO9KyCTvZ_EGXPb7w-187" value="" style="rounded=0;whiteSpace=wrap;html=1;fontFamily=Courier New;fontSize=6;strokeColor=#000000;strokeWidth=1;fillColor=none;" parent="1" vertex="1">
          <mxGeometry x="80" y="910" width="40" height="10" as="geometry" />
        </mxCell>
        <mxCell id="IwMMO9KyCTvZ_EGXPb7w-188" value="" style="rounded=0;whiteSpace=wrap;html=1;fontFamily=Courier New;fontSize=6;strokeColor=#000000;strokeWidth=1;fillColor=default;gradientColor=none;" parent="1" vertex="1">
          <mxGeometry x="40" y="990" width="120" height="10" as="geometry" />
        </mxCell>
        <mxCell id="IwMMO9KyCTvZ_EGXPb7w-189" value="" style="rounded=0;whiteSpace=wrap;html=1;fontFamily=Courier New;fontSize=6;strokeColor=#36393d;strokeWidth=1;fillColor=#cce5ff;" parent="1" vertex="1">
          <mxGeometry x="40" y="1000" width="40" height="60" as="geometry" />
        </mxCell>
        <mxCell id="IwMMO9KyCTvZ_EGXPb7w-190" value="" style="rounded=0;whiteSpace=wrap;html=1;fontFamily=Courier New;fontSize=6;strokeColor=#000000;strokeWidth=1;fillColor=#81C4AE;" parent="1" vertex="1">
          <mxGeometry x="80" y="1000" width="40" height="60" as="geometry" />
        </mxCell>
        <mxCell id="IwMMO9KyCTvZ_EGXPb7w-191" value="" style="rounded=0;whiteSpace=wrap;html=1;fontFamily=Courier New;fontSize=6;strokeColor=#000000;strokeWidth=1;fillColor=#81C4AE;" parent="1" vertex="1">
          <mxGeometry x="120" y="1000" width="40" height="60" as="geometry" />
        </mxCell>
        <mxCell id="IwMMO9KyCTvZ_EGXPb7w-192" value="" style="endArrow=none;html=1;rounded=0;fontFamily=Courier New;fontSize=6;exitX=0;exitY=0;exitDx=0;exitDy=0;startArrow=none;entryX=1;entryY=0.669;entryDx=0;entryDy=0;entryPerimeter=0;" parent="1" source="IwMMO9KyCTvZ_EGXPb7w-196" target="IwMMO9KyCTvZ_EGXPb7w-191" edge="1">
          <mxGeometry width="50" height="50" relative="1" as="geometry">
            <mxPoint x="50" y="1100" as="sourcePoint" />
            <mxPoint x="160" y="1041" as="targetPoint" />
          </mxGeometry>
        </mxCell>
        <mxCell id="IwMMO9KyCTvZ_EGXPb7w-193" value="1" style="text;strokeColor=default;fillColor=#A8CCF7;html=1;fontSize=12;fontStyle=1;verticalAlign=middle;align=center;fontFamily=Courier New;" parent="1" vertex="1">
          <mxGeometry x="40" y="1000" width="40" height="20" as="geometry" />
        </mxCell>
        <mxCell id="IwMMO9KyCTvZ_EGXPb7w-194" value="3" style="text;strokeColor=default;fillColor=#A8CCF7;html=1;fontSize=12;fontStyle=1;verticalAlign=middle;align=center;fontFamily=Courier New;" parent="1" vertex="1">
          <mxGeometry x="40" y="1020" width="40" height="20" as="geometry" />
        </mxCell>
        <mxCell id="IwMMO9KyCTvZ_EGXPb7w-195" value="" style="rounded=0;whiteSpace=wrap;html=1;fontFamily=Courier New;fontSize=6;strokeColor=#000000;strokeWidth=1;fillColor=none;" parent="1" vertex="1">
          <mxGeometry x="80" y="990" width="40" height="10" as="geometry" />
        </mxCell>
        <mxCell id="IwMMO9KyCTvZ_EGXPb7w-196" value="4" style="text;strokeColor=default;fillColor=#A8CCF7;html=1;fontSize=12;fontStyle=1;verticalAlign=middle;align=center;fontFamily=Courier New;" parent="1" vertex="1">
          <mxGeometry x="40" y="1040" width="40" height="20" as="geometry" />
        </mxCell>
        <mxCell id="IwMMO9KyCTvZ_EGXPb7w-197" value="" style="endArrow=none;html=1;rounded=0;fontFamily=Courier New;fontSize=6;exitX=0;exitY=0;exitDx=0;exitDy=0;startArrow=none;" parent="1" source="IwMMO9KyCTvZ_EGXPb7w-194" edge="1">
          <mxGeometry width="50" height="50" relative="1" as="geometry">
            <mxPoint x="48.76000000000005" y="1051.28" as="sourcePoint" />
            <mxPoint x="160.0000000000001" y="1020" as="targetPoint" />
          </mxGeometry>
        </mxCell>
        <mxCell id="IwMMO9KyCTvZ_EGXPb7w-198" value="&lt;font style=&quot;font-size: 10px;&quot;&gt;left_relation&lt;/font&gt;" style="text;strokeColor=none;fillColor=none;html=1;fontSize=24;fontStyle=1;verticalAlign=middle;align=left;fontFamily=Courier New;" parent="1" vertex="1">
          <mxGeometry x="40" y="880" width="100" height="30" as="geometry" />
        </mxCell>
        <mxCell id="IwMMO9KyCTvZ_EGXPb7w-199" value="&lt;font style=&quot;font-size: 10px;&quot;&gt;right_relation&lt;/font&gt;" style="text;strokeColor=none;fillColor=none;html=1;fontSize=24;fontStyle=1;verticalAlign=middle;align=left;fontFamily=Courier New;" parent="1" vertex="1">
          <mxGeometry x="40" y="960" width="100" height="30" as="geometry" />
        </mxCell>
        <mxCell id="IwMMO9KyCTvZ_EGXPb7w-200" value="" style="rounded=0;whiteSpace=wrap;html=1;fontFamily=Courier New;fontSize=6;strokeColor=#000000;strokeWidth=1;fillColor=default;gradientColor=none;" parent="1" vertex="1">
          <mxGeometry x="241" y="910" width="120" height="10" as="geometry" />
        </mxCell>
        <mxCell id="IwMMO9KyCTvZ_EGXPb7w-201" value="" style="rounded=0;whiteSpace=wrap;html=1;fontFamily=Courier New;fontSize=6;strokeColor=#36393d;strokeWidth=1;fillColor=#cce5ff;" parent="1" vertex="1">
          <mxGeometry x="241" y="920" width="40" height="80" as="geometry" />
        </mxCell>
        <mxCell id="IwMMO9KyCTvZ_EGXPb7w-202" value="" style="rounded=0;whiteSpace=wrap;html=1;fontFamily=Courier New;fontSize=6;strokeColor=#000000;strokeWidth=1;fillColor=#F0B576;" parent="1" vertex="1">
          <mxGeometry x="281" y="920" width="40" height="80" as="geometry" />
        </mxCell>
        <mxCell id="IwMMO9KyCTvZ_EGXPb7w-203" value="" style="rounded=0;whiteSpace=wrap;html=1;fontFamily=Courier New;fontSize=6;strokeColor=#000000;strokeWidth=1;fillColor=#F0B576;" parent="1" vertex="1">
          <mxGeometry x="321" y="920" width="40" height="80" as="geometry" />
        </mxCell>
        <mxCell id="IwMMO9KyCTvZ_EGXPb7w-204" value="1" style="text;strokeColor=default;fillColor=#A8CCF7;html=1;fontSize=12;fontStyle=1;verticalAlign=bottom;align=center;fontFamily=Courier New;" parent="1" vertex="1">
          <mxGeometry x="241" y="920" width="40" height="20" as="geometry" />
        </mxCell>
        <mxCell id="IwMMO9KyCTvZ_EGXPb7w-205" value="" style="rounded=0;whiteSpace=wrap;html=1;fontFamily=Courier New;fontSize=6;strokeColor=#000000;strokeWidth=1;fillColor=none;" parent="1" vertex="1">
          <mxGeometry x="281" y="910" width="40" height="10" as="geometry" />
        </mxCell>
        <mxCell id="IwMMO9KyCTvZ_EGXPb7w-206" value="&lt;font style=&quot;font-size: 10px;&quot;&gt;Full Join&lt;/font&gt;" style="text;strokeColor=none;fillColor=none;html=1;fontSize=24;fontStyle=1;verticalAlign=middle;align=left;fontFamily=Courier New;" parent="1" vertex="1">
          <mxGeometry x="241" y="880" width="100" height="30" as="geometry" />
        </mxCell>
        <mxCell id="IwMMO9KyCTvZ_EGXPb7w-207" value="2" style="text;strokeColor=default;fillColor=#A8CCF7;html=1;fontSize=12;fontStyle=1;verticalAlign=bottom;align=center;fontFamily=Courier New;" parent="1" vertex="1">
          <mxGeometry x="241" y="940" width="40" height="20" as="geometry" />
        </mxCell>
        <mxCell id="IwMMO9KyCTvZ_EGXPb7w-208" value="" style="rounded=0;whiteSpace=wrap;html=1;fontFamily=Courier New;fontSize=6;strokeColor=#000000;strokeWidth=1;fillColor=default;gradientColor=none;" parent="1" vertex="1">
          <mxGeometry x="361" y="910" width="80" height="10" as="geometry" />
        </mxCell>
        <mxCell id="IwMMO9KyCTvZ_EGXPb7w-210" value="" style="rounded=0;whiteSpace=wrap;html=1;fontFamily=Courier New;fontSize=6;strokeColor=#000000;strokeWidth=1;fillColor=#81C4AE;" parent="1" vertex="1">
          <mxGeometry x="401" y="920" width="40" height="80" as="geometry" />
        </mxCell>
        <mxCell id="IwMMO9KyCTvZ_EGXPb7w-211" value="" style="rounded=0;whiteSpace=wrap;html=1;fontFamily=Courier New;fontSize=6;strokeColor=#000000;strokeWidth=1;fillColor=#81C4AE;" parent="1" vertex="1">
          <mxGeometry x="361" y="920" width="40" height="80" as="geometry" />
        </mxCell>
        <mxCell id="IwMMO9KyCTvZ_EGXPb7w-212" value="" style="endArrow=none;html=1;rounded=0;fontFamily=Courier New;fontSize=6;startArrow=none;" parent="1" edge="1">
          <mxGeometry width="50" height="50" relative="1" as="geometry">
            <mxPoint x="241.0000000000001" y="960" as="sourcePoint" />
            <mxPoint x="441" y="960" as="targetPoint" />
          </mxGeometry>
        </mxCell>
        <mxCell id="IwMMO9KyCTvZ_EGXPb7w-217" value="" style="endArrow=none;html=1;rounded=0;fontFamily=Courier New;fontSize=6;startArrow=none;" parent="1" edge="1">
          <mxGeometry width="50" height="50" relative="1" as="geometry">
            <mxPoint x="241.0000000000001" y="980" as="sourcePoint" />
            <mxPoint x="441" y="980" as="targetPoint" />
          </mxGeometry>
        </mxCell>
        <mxCell id="IwMMO9KyCTvZ_EGXPb7w-220" value="" style="endArrow=none;html=1;rounded=0;fontFamily=Courier New;fontSize=6;startArrow=none;" parent="1" edge="1">
          <mxGeometry width="50" height="50" relative="1" as="geometry">
            <mxPoint x="241.0000000000001" y="940" as="sourcePoint" />
            <mxPoint x="441" y="940" as="targetPoint" />
          </mxGeometry>
        </mxCell>
        <mxCell id="IwMMO9KyCTvZ_EGXPb7w-224" value="3" style="text;strokeColor=default;fillColor=#A8CCF7;html=1;fontSize=12;fontStyle=1;verticalAlign=bottom;align=center;fontFamily=Courier New;" parent="1" vertex="1">
          <mxGeometry x="241" y="960" width="40" height="20" as="geometry" />
        </mxCell>
        <mxCell id="IwMMO9KyCTvZ_EGXPb7w-225" value="4" style="text;strokeColor=default;fillColor=#A8CCF7;html=1;fontSize=12;fontStyle=1;verticalAlign=bottom;align=center;fontFamily=Courier New;" parent="1" vertex="1">
          <mxGeometry x="241" y="980" width="40" height="20" as="geometry" />
        </mxCell>
        <mxCell id="IwMMO9KyCTvZ_EGXPb7w-228" value="" style="rounded=0;whiteSpace=wrap;html=1;fontFamily=Courier New;fontSize=6;strokeColor=#000000;strokeWidth=1;fillColor=none;" parent="1" vertex="1">
          <mxGeometry x="401" y="910" width="40" height="10" as="geometry" />
        </mxCell>
        <mxCell id="IwMMO9KyCTvZ_EGXPb7w-229" value="" style="rounded=0;whiteSpace=wrap;html=1;fontFamily=Courier New;fontSize=6;strokeColor=#000000;strokeWidth=1;fillColor=default;" parent="1" vertex="1">
          <mxGeometry x="281" y="960" width="40" height="20" as="geometry" />
        </mxCell>
        <mxCell id="IwMMO9KyCTvZ_EGXPb7w-230" value="" style="rounded=0;whiteSpace=wrap;html=1;fontFamily=Courier New;fontSize=6;strokeColor=#000000;strokeWidth=1;fillColor=default;" parent="1" vertex="1">
          <mxGeometry x="321" y="960" width="40" height="20" as="geometry" />
        </mxCell>
        <mxCell id="IwMMO9KyCTvZ_EGXPb7w-231" value="" style="rounded=0;whiteSpace=wrap;html=1;fontFamily=Courier New;fontSize=6;strokeColor=#000000;strokeWidth=1;fillColor=default;" parent="1" vertex="1">
          <mxGeometry x="281" y="980" width="40" height="20" as="geometry" />
        </mxCell>
        <mxCell id="IwMMO9KyCTvZ_EGXPb7w-232" value="" style="rounded=0;whiteSpace=wrap;html=1;fontFamily=Courier New;fontSize=6;strokeColor=#000000;strokeWidth=1;fillColor=default;" parent="1" vertex="1">
          <mxGeometry x="321" y="980" width="40" height="20" as="geometry" />
        </mxCell>
        <mxCell id="IwMMO9KyCTvZ_EGXPb7w-233" value="" style="rounded=0;whiteSpace=wrap;html=1;fontFamily=Courier New;fontSize=6;strokeColor=#000000;strokeWidth=1;fillColor=default;" parent="1" vertex="1">
          <mxGeometry x="361" y="940" width="40" height="20" as="geometry" />
        </mxCell>
        <mxCell id="IwMMO9KyCTvZ_EGXPb7w-234" value="" style="rounded=0;whiteSpace=wrap;html=1;fontFamily=Courier New;fontSize=6;strokeColor=#000000;strokeWidth=1;fillColor=default;" parent="1" vertex="1">
          <mxGeometry x="401" y="940" width="40" height="20" as="geometry" />
        </mxCell>
        <mxCell id="zJBmIWDR50-qDCNYkhgR-52" value="" style="rounded=0;whiteSpace=wrap;html=1;fontFamily=Courier New;fontSize=6;strokeColor=#000000;strokeWidth=1;fillColor=default;gradientColor=none;" parent="1" vertex="1">
          <mxGeometry x="170" y="1230" width="120" height="20" as="geometry" />
        </mxCell>
        <mxCell id="zJBmIWDR50-qDCNYkhgR-53" value="" style="rounded=0;whiteSpace=wrap;html=1;fontFamily=Courier New;fontSize=6;strokeColor=#36393d;strokeWidth=1;fillColor=#cce5ff;" parent="1" vertex="1">
          <mxGeometry x="170" y="1250" width="40" height="80" as="geometry" />
        </mxCell>
        <mxCell id="zJBmIWDR50-qDCNYkhgR-54" value="" style="rounded=0;whiteSpace=wrap;html=1;fontFamily=Courier New;fontSize=6;strokeColor=#000000;strokeWidth=1;fillColor=#F0B576;" parent="1" vertex="1">
          <mxGeometry x="210" y="1250" width="40" height="80" as="geometry" />
        </mxCell>
        <mxCell id="zJBmIWDR50-qDCNYkhgR-55" value="" style="rounded=0;whiteSpace=wrap;html=1;fontFamily=Courier New;fontSize=6;strokeColor=#000000;strokeWidth=1;fillColor=#F0B576;" parent="1" vertex="1">
          <mxGeometry x="250" y="1250" width="40" height="80" as="geometry" />
        </mxCell>
        <mxCell id="zJBmIWDR50-qDCNYkhgR-56" value="1" style="text;strokeColor=#000000;fillColor=#F0B576;html=1;fontSize=12;fontStyle=1;verticalAlign=bottom;align=center;fontFamily=Courier New;" parent="1" vertex="1">
          <mxGeometry x="170" y="1250" width="40" height="20" as="geometry" />
        </mxCell>
        <mxCell id="zJBmIWDR50-qDCNYkhgR-57" value="" style="rounded=0;whiteSpace=wrap;html=1;fontFamily=Courier New;fontSize=6;strokeColor=#000000;strokeWidth=1;fillColor=none;" parent="1" vertex="1">
          <mxGeometry x="210" y="1230" width="40" height="20" as="geometry" />
        </mxCell>
        <mxCell id="zJBmIWDR50-qDCNYkhgR-59" value="2" style="text;strokeColor=#000000;fillColor=#F0B576;html=1;fontSize=12;fontStyle=1;verticalAlign=bottom;align=center;fontFamily=Courier New;" parent="1" vertex="1">
          <mxGeometry x="170" y="1270" width="40" height="20" as="geometry" />
        </mxCell>
        <mxCell id="zJBmIWDR50-qDCNYkhgR-60" value="" style="rounded=0;whiteSpace=wrap;html=1;fontFamily=Courier New;fontSize=6;strokeColor=#000000;strokeWidth=1;fillColor=default;gradientColor=none;" parent="1" vertex="1">
          <mxGeometry x="290" y="1230" width="80" height="20" as="geometry" />
        </mxCell>
        <mxCell id="zJBmIWDR50-qDCNYkhgR-61" value="" style="rounded=0;whiteSpace=wrap;html=1;fontFamily=Courier New;fontSize=6;strokeColor=#000000;strokeWidth=1;fillColor=#F0B576;" parent="1" vertex="1">
          <mxGeometry x="330" y="1250" width="40" height="80" as="geometry" />
        </mxCell>
        <mxCell id="zJBmIWDR50-qDCNYkhgR-62" value="" style="rounded=0;whiteSpace=wrap;html=1;fontFamily=Courier New;fontSize=6;strokeColor=#000000;strokeWidth=1;fillColor=#F0B576;" parent="1" vertex="1">
          <mxGeometry x="290" y="1250" width="40" height="80" as="geometry" />
        </mxCell>
        <mxCell id="zJBmIWDR50-qDCNYkhgR-63" value="" style="endArrow=none;html=1;rounded=0;fontFamily=Courier New;fontSize=6;startArrow=none;" parent="1" edge="1">
          <mxGeometry width="50" height="50" relative="1" as="geometry">
            <mxPoint x="170" y="1290" as="sourcePoint" />
            <mxPoint x="370" y="1290" as="targetPoint" />
          </mxGeometry>
        </mxCell>
        <mxCell id="zJBmIWDR50-qDCNYkhgR-64" value="" style="endArrow=none;html=1;rounded=0;fontFamily=Courier New;fontSize=6;startArrow=none;" parent="1" edge="1">
          <mxGeometry width="50" height="50" relative="1" as="geometry">
            <mxPoint x="170" y="1310" as="sourcePoint" />
            <mxPoint x="370" y="1310" as="targetPoint" />
          </mxGeometry>
        </mxCell>
        <mxCell id="zJBmIWDR50-qDCNYkhgR-65" value="" style="endArrow=none;html=1;rounded=0;fontFamily=Courier New;fontSize=6;startArrow=none;" parent="1" edge="1">
          <mxGeometry width="50" height="50" relative="1" as="geometry">
            <mxPoint x="170" y="1270" as="sourcePoint" />
            <mxPoint x="370" y="1270" as="targetPoint" />
          </mxGeometry>
        </mxCell>
        <mxCell id="zJBmIWDR50-qDCNYkhgR-66" value="3" style="text;strokeColor=#000000;fillColor=#F0B576;html=1;fontSize=12;fontStyle=1;verticalAlign=bottom;align=center;fontFamily=Courier New;" parent="1" vertex="1">
          <mxGeometry x="170" y="1290" width="40" height="20" as="geometry" />
        </mxCell>
        <mxCell id="zJBmIWDR50-qDCNYkhgR-67" value="&amp;nbsp;" style="text;strokeColor=#000000;fillColor=#81C4AE;html=1;fontSize=12;fontStyle=1;verticalAlign=bottom;align=center;fontFamily=Courier New;" parent="1" vertex="1">
          <mxGeometry x="250" y="1250" width="40" height="20" as="geometry" />
        </mxCell>
        <mxCell id="zJBmIWDR50-qDCNYkhgR-68" value="" style="rounded=0;whiteSpace=wrap;html=1;fontFamily=Courier New;fontSize=6;strokeColor=#000000;strokeWidth=1;fillColor=none;" parent="1" vertex="1">
          <mxGeometry x="330" y="1230" width="40" height="20" as="geometry" />
        </mxCell>
        <mxCell id="zJBmIWDR50-qDCNYkhgR-77" value="B" style="text;strokeColor=none;fillColor=none;html=1;fontSize=12;fontStyle=1;verticalAlign=bottom;align=center;fontFamily=Courier New;" parent="1" vertex="1">
          <mxGeometry x="210" y="1230" width="40" height="20" as="geometry" />
        </mxCell>
        <mxCell id="zJBmIWDR50-qDCNYkhgR-78" value="C" style="text;strokeColor=none;fillColor=none;html=1;fontSize=12;fontStyle=1;verticalAlign=bottom;align=center;fontFamily=Courier New;" parent="1" vertex="1">
          <mxGeometry x="250" y="1230" width="40" height="20" as="geometry" />
        </mxCell>
        <mxCell id="zJBmIWDR50-qDCNYkhgR-79" value="D" style="text;strokeColor=none;fillColor=none;html=1;fontSize=12;fontStyle=1;verticalAlign=bottom;align=center;fontFamily=Courier New;" parent="1" vertex="1">
          <mxGeometry x="290" y="1230" width="40" height="20" as="geometry" />
        </mxCell>
        <mxCell id="zJBmIWDR50-qDCNYkhgR-80" value="E" style="text;strokeColor=none;fillColor=none;html=1;fontSize=12;fontStyle=1;verticalAlign=bottom;align=center;fontFamily=Courier New;" parent="1" vertex="1">
          <mxGeometry x="330" y="1230" width="40" height="20" as="geometry" />
        </mxCell>
        <mxCell id="zJBmIWDR50-qDCNYkhgR-83" value="4" style="text;strokeColor=#000000;fillColor=#F0B576;html=1;fontSize=12;fontStyle=1;verticalAlign=bottom;align=center;fontFamily=Courier New;" parent="1" vertex="1">
          <mxGeometry x="170" y="1310" width="40" height="20" as="geometry" />
        </mxCell>
        <mxCell id="zJBmIWDR50-qDCNYkhgR-85" value="&amp;nbsp;" style="text;strokeColor=#000000;fillColor=#81C4AE;html=1;fontSize=12;fontStyle=1;verticalAlign=bottom;align=center;fontFamily=Courier New;" parent="1" vertex="1">
          <mxGeometry x="250" y="1270" width="40" height="20" as="geometry" />
        </mxCell>
        <mxCell id="zJBmIWDR50-qDCNYkhgR-86" value="&lt;font style=&quot;font-size: 10px;&quot;&gt;SELECT C, D&lt;/font&gt;" style="text;strokeColor=none;fillColor=none;html=1;fontSize=24;fontStyle=1;verticalAlign=middle;align=center;fontFamily=Courier New;" parent="1" vertex="1">
          <mxGeometry x="250" y="1200" width="80" height="20" as="geometry" />
        </mxCell>
        <mxCell id="zJBmIWDR50-qDCNYkhgR-87" value="&amp;nbsp;" style="text;strokeColor=#000000;fillColor=#81C4AE;html=1;fontSize=12;fontStyle=1;verticalAlign=bottom;align=center;fontFamily=Courier New;" parent="1" vertex="1">
          <mxGeometry x="290" y="1250" width="40" height="20" as="geometry" />
        </mxCell>
        <mxCell id="zJBmIWDR50-qDCNYkhgR-88" value="&amp;nbsp;" style="text;strokeColor=#000000;fillColor=#81C4AE;html=1;fontSize=12;fontStyle=1;verticalAlign=bottom;align=center;fontFamily=Courier New;" parent="1" vertex="1">
          <mxGeometry x="290" y="1270" width="40" height="20" as="geometry" />
        </mxCell>
        <mxCell id="zJBmIWDR50-qDCNYkhgR-90" value="&lt;font style=&quot;font-size: 10px; line-height: 0.7;&quot;&gt;WHERE A &amp;lt; 3&lt;/font&gt;" style="text;strokeColor=none;fillColor=none;html=1;fontSize=24;fontStyle=1;verticalAlign=middle;align=center;fontFamily=Courier New;rounded=0;arcSize=0;" parent="1" vertex="1">
          <mxGeometry x="60" y="1250" width="110" height="30" as="geometry" />
        </mxCell>
        <mxCell id="zJBmIWDR50-qDCNYkhgR-91" value="A" style="text;strokeColor=none;fillColor=none;html=1;fontSize=12;fontStyle=1;verticalAlign=bottom;align=center;fontFamily=Courier New;" parent="1" vertex="1">
          <mxGeometry x="170" y="1230" width="40" height="20" as="geometry" />
        </mxCell>
        <mxCell id="p_UBCPuTnho37SXTxM_3-1" value="FROM" style="rounded=1;whiteSpace=wrap;html=1;fontSize=18;fontStyle=1;fontFamily=Verdana;" parent="1" vertex="1">
          <mxGeometry x="120" y="1400" width="160" height="40" as="geometry" />
        </mxCell>
        <mxCell id="p_UBCPuTnho37SXTxM_3-2" value="JOIN" style="rounded=1;whiteSpace=wrap;html=1;fontSize=18;fontStyle=1;fontFamily=Verdana;" parent="1" vertex="1">
          <mxGeometry x="120" y="1450" width="160" height="40" as="geometry" />
        </mxCell>
        <mxCell id="p_UBCPuTnho37SXTxM_3-3" value="WHERE" style="rounded=1;whiteSpace=wrap;html=1;fontSize=18;fontStyle=1;fontFamily=Verdana;" parent="1" vertex="1">
          <mxGeometry x="120" y="1500" width="160" height="40" as="geometry" />
        </mxCell>
        <mxCell id="p_UBCPuTnho37SXTxM_3-4" value="GROUP BY" style="rounded=1;whiteSpace=wrap;html=1;fontSize=18;fontStyle=1;fontFamily=Verdana;" parent="1" vertex="1">
          <mxGeometry x="120" y="1550" width="160" height="40" as="geometry" />
        </mxCell>
        <mxCell id="p_UBCPuTnho37SXTxM_3-5" value="HAVING" style="rounded=1;whiteSpace=wrap;html=1;fontSize=18;fontStyle=1;fontFamily=Verdana;" parent="1" vertex="1">
          <mxGeometry x="120" y="1600" width="160" height="40" as="geometry" />
        </mxCell>
        <mxCell id="p_UBCPuTnho37SXTxM_3-7" value="SELECT" style="rounded=1;whiteSpace=wrap;html=1;fontSize=18;fontStyle=1;fontFamily=Verdana;" parent="1" vertex="1">
          <mxGeometry x="120" y="1650" width="160" height="40" as="geometry" />
        </mxCell>
        <mxCell id="p_UBCPuTnho37SXTxM_3-8" value="DISTINCT" style="rounded=1;whiteSpace=wrap;html=1;fontSize=18;fontStyle=1;fontFamily=Verdana;" parent="1" vertex="1">
          <mxGeometry x="120" y="1700" width="160" height="40" as="geometry" />
        </mxCell>
        <mxCell id="p_UBCPuTnho37SXTxM_3-9" value="ORDER BY" style="rounded=1;whiteSpace=wrap;html=1;fontSize=18;fontStyle=1;fontFamily=Verdana;" parent="1" vertex="1">
          <mxGeometry x="120" y="1750" width="160" height="40" as="geometry" />
        </mxCell>
        <mxCell id="p_UBCPuTnho37SXTxM_3-10" value="OFFSET" style="rounded=1;whiteSpace=wrap;html=1;fontSize=18;fontStyle=1;fontFamily=Verdana;" parent="1" vertex="1">
          <mxGeometry x="120" y="1800" width="160" height="40" as="geometry" />
        </mxCell>
        <mxCell id="p_UBCPuTnho37SXTxM_3-11" value="LIMIT" style="rounded=1;whiteSpace=wrap;html=1;fontSize=18;fontStyle=1;fontFamily=Verdana;" parent="1" vertex="1">
          <mxGeometry x="120" y="1850" width="160" height="40" as="geometry" />
        </mxCell>
        <mxCell id="Lh0o0_GAxlFbKM6EGO_2-1" value="2" style="text;strokeColor=default;fillColor=#A8CCF7;html=1;fontSize=12;fontStyle=1;verticalAlign=bottom;align=center;fontFamily=Courier New;" parent="1" vertex="1">
          <mxGeometry x="241" y="750" width="40" height="20" as="geometry" />
        </mxCell>
        <mxCell id="Lh0o0_GAxlFbKM6EGO_2-2" value="2" style="text;strokeColor=default;fillColor=#A8CCF7;html=1;fontSize=12;fontStyle=1;verticalAlign=bottom;align=center;fontFamily=Courier New;" parent="1" vertex="1">
          <mxGeometry x="241" y="730" width="40" height="20" as="geometry" />
        </mxCell>
        <mxCell id="Lh0o0_GAxlFbKM6EGO_2-3" value="2" style="text;strokeColor=default;fillColor=#A8CCF7;html=1;fontSize=12;fontStyle=1;verticalAlign=bottom;align=center;fontFamily=Courier New;" parent="1" vertex="1">
          <mxGeometry x="241" y="710" width="40" height="20" as="geometry" />
        </mxCell>
        <mxCell id="Lh0o0_GAxlFbKM6EGO_2-4" value="1" style="text;strokeColor=default;fillColor=#A8CCF7;html=1;fontSize=12;fontStyle=1;verticalAlign=bottom;align=center;fontFamily=Lucida Console;" parent="1" vertex="1">
          <mxGeometry x="239" y="400" width="40" height="20" as="geometry" />
        </mxCell>
        <mxCell id="Lh0o0_GAxlFbKM6EGO_2-5" value="1" style="text;strokeColor=default;fillColor=#A8CCF7;html=1;fontSize=12;fontStyle=1;verticalAlign=middle;align=center;fontFamily=Lucida Console;" parent="1" vertex="1">
          <mxGeometry x="40" y="400" width="40" height="20" as="geometry" />
        </mxCell>
        <mxCell id="Lh0o0_GAxlFbKM6EGO_2-6" value="1" style="text;strokeColor=default;fillColor=#A8CCF7;html=1;fontSize=12;fontStyle=1;verticalAlign=bottom;align=center;fontFamily=Courier New;" parent="1" vertex="1">
          <mxGeometry x="239" y="400" width="40" height="20" as="geometry" />
        </mxCell>
        <mxCell id="Lh0o0_GAxlFbKM6EGO_2-7" value="1" style="text;strokeColor=default;fillColor=#A8CCF7;html=1;fontSize=12;fontStyle=1;verticalAlign=middle;align=center;fontFamily=Courier New;" parent="1" vertex="1">
          <mxGeometry x="40" y="400" width="40" height="20" as="geometry" />
        </mxCell>
        <mxCell id="Lh0o0_GAxlFbKM6EGO_2-8" value="2" style="text;strokeColor=default;fillColor=#A8CCF7;html=1;fontSize=12;fontStyle=1;verticalAlign=middle;align=center;fontFamily=Courier New;" parent="1" vertex="1">
          <mxGeometry x="40" y="420" width="40" height="20" as="geometry" />
        </mxCell>
        <mxCell id="Lh0o0_GAxlFbKM6EGO_2-9" value="1" style="text;strokeColor=default;fillColor=#A8CCF7;html=1;fontSize=12;fontStyle=1;verticalAlign=middle;align=center;fontFamily=Courier New;" parent="1" vertex="1">
          <mxGeometry x="40" y="480" width="40" height="20" as="geometry" />
        </mxCell>
        <mxCell id="C3mWi4B5Svbf4Ds6Fzh5-1" value="" style="rounded=0;whiteSpace=wrap;html=1;fontFamily=Lucida Console;fontSize=6;strokeColor=#000000;strokeWidth=1;fillColor=default;gradientColor=none;" vertex="1" parent="1">
          <mxGeometry x="522" y="125" width="120" height="10" as="geometry" />
        </mxCell>
        <mxCell id="C3mWi4B5Svbf4Ds6Fzh5-2" value="" style="rounded=0;whiteSpace=wrap;html=1;fontFamily=Lucida Console;fontSize=6;strokeColor=#36393d;strokeWidth=1;fillColor=#cce5ff;" vertex="1" parent="1">
          <mxGeometry x="522" y="135" width="40" height="40" as="geometry" />
        </mxCell>
        <mxCell id="C3mWi4B5Svbf4Ds6Fzh5-3" value="" style="rounded=0;whiteSpace=wrap;html=1;fontFamily=Lucida Console;fontSize=6;strokeColor=#000000;strokeWidth=1;fillColor=#f0b576;" vertex="1" parent="1">
          <mxGeometry x="562" y="135" width="40" height="40" as="geometry" />
        </mxCell>
        <mxCell id="C3mWi4B5Svbf4Ds6Fzh5-4" value="" style="rounded=0;whiteSpace=wrap;html=1;fontFamily=Lucida Console;fontSize=6;strokeColor=#000000;strokeWidth=1;fillColor=#F0B576;" vertex="1" parent="1">
          <mxGeometry x="602" y="135" width="40" height="40" as="geometry" />
        </mxCell>
        <mxCell id="C3mWi4B5Svbf4Ds6Fzh5-5" value="" style="endArrow=none;html=1;rounded=0;fontFamily=Lucida Console;fontSize=6;entryX=1;entryY=0.5;entryDx=0;entryDy=0;exitX=0;exitY=0.5;exitDx=0;exitDy=0;startArrow=none;" edge="1" parent="1" source="C3mWi4B5Svbf4Ds6Fzh5-2" target="C3mWi4B5Svbf4Ds6Fzh5-4">
          <mxGeometry width="50" height="50" relative="1" as="geometry">
            <mxPoint x="532" y="235" as="sourcePoint" />
            <mxPoint x="582" y="185" as="targetPoint" />
          </mxGeometry>
        </mxCell>
        <mxCell id="C3mWi4B5Svbf4Ds6Fzh5-6" value="1" style="text;strokeColor=default;fillColor=#A8CCF7;html=1;fontSize=12;fontStyle=1;verticalAlign=bottom;align=center;fontFamily=Courier New;" vertex="1" parent="1">
          <mxGeometry x="522" y="135" width="40" height="20" as="geometry" />
        </mxCell>
        <mxCell id="C3mWi4B5Svbf4Ds6Fzh5-7" value="2" style="text;strokeColor=default;fillColor=#A8CCF7;html=1;fontSize=12;fontStyle=1;verticalAlign=bottom;align=center;fontFamily=Courier New;" vertex="1" parent="1">
          <mxGeometry x="522" y="155" width="40" height="20" as="geometry" />
        </mxCell>
        <mxCell id="C3mWi4B5Svbf4Ds6Fzh5-8" value="" style="rounded=0;whiteSpace=wrap;html=1;fontFamily=Lucida Console;fontSize=6;strokeColor=#000000;strokeWidth=1;fillColor=none;" vertex="1" parent="1">
          <mxGeometry x="562" y="125" width="40" height="10" as="geometry" />
        </mxCell>
        <mxCell id="C3mWi4B5Svbf4Ds6Fzh5-9" value="" style="rounded=0;whiteSpace=wrap;html=1;fontFamily=Lucida Console;fontSize=6;strokeColor=#000000;strokeWidth=1;fillColor=default;gradientColor=none;" vertex="1" parent="1">
          <mxGeometry x="522" y="205" width="120" height="10" as="geometry" />
        </mxCell>
        <mxCell id="C3mWi4B5Svbf4Ds6Fzh5-10" value="" style="rounded=0;whiteSpace=wrap;html=1;fontFamily=Lucida Console;fontSize=6;strokeColor=#36393d;strokeWidth=1;fillColor=#cce5ff;" vertex="1" parent="1">
          <mxGeometry x="522" y="215" width="40" height="60" as="geometry" />
        </mxCell>
        <mxCell id="C3mWi4B5Svbf4Ds6Fzh5-11" value="" style="rounded=0;whiteSpace=wrap;html=1;fontFamily=Lucida Console;fontSize=6;strokeColor=#000000;strokeWidth=1;fillColor=#81c4ae;" vertex="1" parent="1">
          <mxGeometry x="562" y="215" width="40" height="60" as="geometry" />
        </mxCell>
        <mxCell id="C3mWi4B5Svbf4Ds6Fzh5-12" value="" style="rounded=0;whiteSpace=wrap;html=1;fontFamily=Lucida Console;fontSize=6;strokeColor=#000000;strokeWidth=1;fillColor=#81C4AE;" vertex="1" parent="1">
          <mxGeometry x="602" y="215" width="40" height="60" as="geometry" />
        </mxCell>
        <mxCell id="C3mWi4B5Svbf4Ds6Fzh5-13" value="" style="endArrow=none;html=1;rounded=0;fontFamily=Lucida Console;fontSize=6;exitX=0;exitY=0;exitDx=0;exitDy=0;startArrow=none;entryX=1;entryY=0.669;entryDx=0;entryDy=0;entryPerimeter=0;" edge="1" parent="1" source="C3mWi4B5Svbf4Ds6Fzh5-17" target="C3mWi4B5Svbf4Ds6Fzh5-12">
          <mxGeometry width="50" height="50" relative="1" as="geometry">
            <mxPoint x="532" y="315" as="sourcePoint" />
            <mxPoint x="642" y="256" as="targetPoint" />
          </mxGeometry>
        </mxCell>
        <mxCell id="C3mWi4B5Svbf4Ds6Fzh5-14" value="1" style="text;strokeColor=default;fillColor=#A8CCF7;html=1;fontSize=12;fontStyle=1;verticalAlign=bottom;align=center;fontFamily=Courier New;" vertex="1" parent="1">
          <mxGeometry x="522" y="215" width="40" height="20" as="geometry" />
        </mxCell>
        <mxCell id="C3mWi4B5Svbf4Ds6Fzh5-15" value="3" style="text;strokeColor=default;fillColor=#A8CCF7;html=1;fontSize=12;fontStyle=1;verticalAlign=bottom;align=center;fontFamily=Courier New;" vertex="1" parent="1">
          <mxGeometry x="522" y="235" width="40" height="20" as="geometry" />
        </mxCell>
        <mxCell id="C3mWi4B5Svbf4Ds6Fzh5-16" value="" style="rounded=0;whiteSpace=wrap;html=1;fontFamily=Lucida Console;fontSize=6;strokeColor=#000000;strokeWidth=1;fillColor=none;" vertex="1" parent="1">
          <mxGeometry x="562" y="205" width="40" height="10" as="geometry" />
        </mxCell>
        <mxCell id="C3mWi4B5Svbf4Ds6Fzh5-17" value="4" style="text;strokeColor=default;fillColor=#A8CCF7;html=1;fontSize=12;fontStyle=1;verticalAlign=bottom;align=center;fontFamily=Courier New;" vertex="1" parent="1">
          <mxGeometry x="522" y="255" width="40" height="20" as="geometry" />
        </mxCell>
        <mxCell id="C3mWi4B5Svbf4Ds6Fzh5-18" value="" style="endArrow=none;html=1;rounded=0;fontFamily=Lucida Console;fontSize=6;exitX=0;exitY=0;exitDx=0;exitDy=0;startArrow=none;" edge="1" parent="1" source="C3mWi4B5Svbf4Ds6Fzh5-15">
          <mxGeometry width="50" height="50" relative="1" as="geometry">
            <mxPoint x="530.76" y="266.28000000000003" as="sourcePoint" />
            <mxPoint x="642" y="235" as="targetPoint" />
          </mxGeometry>
        </mxCell>
        <mxCell id="C3mWi4B5Svbf4Ds6Fzh5-19" value="&lt;font style=&quot;font-size: 10px;&quot;&gt;left_relation&lt;/font&gt;" style="text;strokeColor=none;fillColor=none;html=1;fontSize=24;fontStyle=1;verticalAlign=middle;align=left;fontFamily=Courier New;" vertex="1" parent="1">
          <mxGeometry x="522" y="95" width="100" height="30" as="geometry" />
        </mxCell>
        <mxCell id="C3mWi4B5Svbf4Ds6Fzh5-20" value="&lt;font style=&quot;font-size: 10px;&quot;&gt;right_relation&lt;/font&gt;" style="text;strokeColor=none;fillColor=none;html=1;fontSize=24;fontStyle=1;verticalAlign=middle;align=left;fontFamily=Courier New;" vertex="1" parent="1">
          <mxGeometry x="522" y="175" width="100" height="30" as="geometry" />
        </mxCell>
        <mxCell id="C3mWi4B5Svbf4Ds6Fzh5-22" value="" style="rounded=0;whiteSpace=wrap;html=1;fontFamily=Lucida Console;fontSize=6;strokeColor=#36393d;strokeWidth=1;fillColor=#cce5ff;" vertex="1" parent="1">
          <mxGeometry x="721" y="135" width="40" height="20" as="geometry" />
        </mxCell>
        <mxCell id="C3mWi4B5Svbf4Ds6Fzh5-23" value="" style="rounded=0;whiteSpace=wrap;html=1;fontFamily=Lucida Console;fontSize=6;strokeColor=#000000;strokeWidth=1;fillColor=#F0B576;" vertex="1" parent="1">
          <mxGeometry x="761" y="135" width="40" height="20" as="geometry" />
        </mxCell>
        <mxCell id="C3mWi4B5Svbf4Ds6Fzh5-24" value="" style="rounded=0;whiteSpace=wrap;html=1;fontFamily=Lucida Console;fontSize=6;strokeColor=#000000;strokeWidth=1;fillColor=#F0B576;" vertex="1" parent="1">
          <mxGeometry x="801" y="135" width="40" height="20" as="geometry" />
        </mxCell>
        <mxCell id="C3mWi4B5Svbf4Ds6Fzh5-25" value="1" style="text;strokeColor=default;fillColor=#a8ccf7;html=1;fontSize=12;fontStyle=1;verticalAlign=bottom;align=center;fontFamily=Courier New;" vertex="1" parent="1">
          <mxGeometry x="721" y="135" width="40" height="20" as="geometry" />
        </mxCell>
        <mxCell id="C3mWi4B5Svbf4Ds6Fzh5-26" value="" style="rounded=0;whiteSpace=wrap;html=1;fontFamily=Lucida Console;fontSize=6;strokeColor=#000000;strokeWidth=1;fillColor=none;" vertex="1" parent="1">
          <mxGeometry x="761" y="125" width="40" height="10" as="geometry" />
        </mxCell>
        <mxCell id="C3mWi4B5Svbf4Ds6Fzh5-29" value="" style="rounded=0;whiteSpace=wrap;html=1;fontFamily=Lucida Console;fontSize=6;strokeColor=#000000;strokeWidth=1;fillColor=none;" vertex="1" parent="1">
          <mxGeometry x="721" y="125" width="40" height="10" as="geometry" />
        </mxCell>
        <mxCell id="C3mWi4B5Svbf4Ds6Fzh5-30" value="&lt;font style=&quot;font-size: 10px;&quot;&gt;Left Semi Join&lt;/font&gt;" style="text;strokeColor=none;fillColor=none;html=1;fontSize=24;fontStyle=1;verticalAlign=middle;align=left;fontFamily=Courier New;" vertex="1" parent="1">
          <mxGeometry x="721" y="95" width="100" height="30" as="geometry" />
        </mxCell>
        <mxCell id="C3mWi4B5Svbf4Ds6Fzh5-33" value="" style="rounded=0;whiteSpace=wrap;html=1;fontFamily=Lucida Console;fontSize=6;strokeColor=#000000;strokeWidth=1;fillColor=none;" vertex="1" parent="1">
          <mxGeometry x="801" y="125" width="40" height="10" as="geometry" />
        </mxCell>
        <mxCell id="C3mWi4B5Svbf4Ds6Fzh5-36" value="" style="rounded=0;whiteSpace=wrap;html=1;fontFamily=Lucida Console;fontSize=6;strokeColor=#000000;strokeWidth=1;fillColor=default;gradientColor=none;" vertex="1" parent="1">
          <mxGeometry x="521" y="422" width="120" height="10" as="geometry" />
        </mxCell>
        <mxCell id="C3mWi4B5Svbf4Ds6Fzh5-37" value="" style="rounded=0;whiteSpace=wrap;html=1;fontFamily=Lucida Console;fontSize=6;strokeColor=#36393d;strokeWidth=1;fillColor=#cce5ff;" vertex="1" parent="1">
          <mxGeometry x="521" y="432" width="40" height="40" as="geometry" />
        </mxCell>
        <mxCell id="C3mWi4B5Svbf4Ds6Fzh5-38" value="" style="rounded=0;whiteSpace=wrap;html=1;fontFamily=Lucida Console;fontSize=6;strokeColor=#000000;strokeWidth=1;fillColor=#f0b576;" vertex="1" parent="1">
          <mxGeometry x="561" y="432" width="40" height="40" as="geometry" />
        </mxCell>
        <mxCell id="C3mWi4B5Svbf4Ds6Fzh5-39" value="" style="rounded=0;whiteSpace=wrap;html=1;fontFamily=Lucida Console;fontSize=6;strokeColor=#000000;strokeWidth=1;fillColor=#F0B576;" vertex="1" parent="1">
          <mxGeometry x="601" y="432" width="40" height="40" as="geometry" />
        </mxCell>
        <mxCell id="C3mWi4B5Svbf4Ds6Fzh5-40" value="" style="endArrow=none;html=1;rounded=0;fontFamily=Lucida Console;fontSize=6;entryX=1;entryY=0.5;entryDx=0;entryDy=0;exitX=0;exitY=0.5;exitDx=0;exitDy=0;startArrow=none;" edge="1" parent="1" source="C3mWi4B5Svbf4Ds6Fzh5-37" target="C3mWi4B5Svbf4Ds6Fzh5-39">
          <mxGeometry width="50" height="50" relative="1" as="geometry">
            <mxPoint x="531" y="532" as="sourcePoint" />
            <mxPoint x="581" y="482" as="targetPoint" />
          </mxGeometry>
        </mxCell>
        <mxCell id="C3mWi4B5Svbf4Ds6Fzh5-41" value="1" style="text;strokeColor=default;fillColor=#A8CCF7;html=1;fontSize=12;fontStyle=1;verticalAlign=bottom;align=center;fontFamily=Courier New;" vertex="1" parent="1">
          <mxGeometry x="521" y="432" width="40" height="20" as="geometry" />
        </mxCell>
        <mxCell id="C3mWi4B5Svbf4Ds6Fzh5-42" value="2" style="text;strokeColor=default;fillColor=#A8CCF7;html=1;fontSize=12;fontStyle=1;verticalAlign=bottom;align=center;fontFamily=Courier New;" vertex="1" parent="1">
          <mxGeometry x="521" y="452" width="40" height="20" as="geometry" />
        </mxCell>
        <mxCell id="C3mWi4B5Svbf4Ds6Fzh5-43" value="" style="rounded=0;whiteSpace=wrap;html=1;fontFamily=Lucida Console;fontSize=6;strokeColor=#000000;strokeWidth=1;fillColor=none;" vertex="1" parent="1">
          <mxGeometry x="561" y="422" width="40" height="10" as="geometry" />
        </mxCell>
        <mxCell id="C3mWi4B5Svbf4Ds6Fzh5-44" value="" style="rounded=0;whiteSpace=wrap;html=1;fontFamily=Lucida Console;fontSize=6;strokeColor=#000000;strokeWidth=1;fillColor=default;gradientColor=none;" vertex="1" parent="1">
          <mxGeometry x="521" y="502" width="120" height="10" as="geometry" />
        </mxCell>
        <mxCell id="C3mWi4B5Svbf4Ds6Fzh5-45" value="" style="rounded=0;whiteSpace=wrap;html=1;fontFamily=Lucida Console;fontSize=6;strokeColor=#36393d;strokeWidth=1;fillColor=#cce5ff;" vertex="1" parent="1">
          <mxGeometry x="521" y="512" width="40" height="60" as="geometry" />
        </mxCell>
        <mxCell id="C3mWi4B5Svbf4Ds6Fzh5-46" value="" style="rounded=0;whiteSpace=wrap;html=1;fontFamily=Lucida Console;fontSize=6;strokeColor=#000000;strokeWidth=1;fillColor=#81c4ae;" vertex="1" parent="1">
          <mxGeometry x="561" y="512" width="40" height="60" as="geometry" />
        </mxCell>
        <mxCell id="C3mWi4B5Svbf4Ds6Fzh5-47" value="" style="rounded=0;whiteSpace=wrap;html=1;fontFamily=Lucida Console;fontSize=6;strokeColor=#000000;strokeWidth=1;fillColor=#81C4AE;" vertex="1" parent="1">
          <mxGeometry x="601" y="512" width="40" height="60" as="geometry" />
        </mxCell>
        <mxCell id="C3mWi4B5Svbf4Ds6Fzh5-48" value="" style="endArrow=none;html=1;rounded=0;fontFamily=Lucida Console;fontSize=6;exitX=0;exitY=0;exitDx=0;exitDy=0;startArrow=none;entryX=1;entryY=0.669;entryDx=0;entryDy=0;entryPerimeter=0;" edge="1" parent="1" source="C3mWi4B5Svbf4Ds6Fzh5-52" target="C3mWi4B5Svbf4Ds6Fzh5-47">
          <mxGeometry width="50" height="50" relative="1" as="geometry">
            <mxPoint x="531" y="612" as="sourcePoint" />
            <mxPoint x="641" y="553" as="targetPoint" />
          </mxGeometry>
        </mxCell>
        <mxCell id="C3mWi4B5Svbf4Ds6Fzh5-49" value="1" style="text;strokeColor=default;fillColor=#A8CCF7;html=1;fontSize=12;fontStyle=1;verticalAlign=bottom;align=center;fontFamily=Courier New;" vertex="1" parent="1">
          <mxGeometry x="521" y="512" width="40" height="20" as="geometry" />
        </mxCell>
        <mxCell id="C3mWi4B5Svbf4Ds6Fzh5-50" value="3" style="text;strokeColor=default;fillColor=#A8CCF7;html=1;fontSize=12;fontStyle=1;verticalAlign=bottom;align=center;fontFamily=Courier New;" vertex="1" parent="1">
          <mxGeometry x="521" y="532" width="40" height="20" as="geometry" />
        </mxCell>
        <mxCell id="C3mWi4B5Svbf4Ds6Fzh5-51" value="" style="rounded=0;whiteSpace=wrap;html=1;fontFamily=Lucida Console;fontSize=6;strokeColor=#000000;strokeWidth=1;fillColor=none;" vertex="1" parent="1">
          <mxGeometry x="561" y="502" width="40" height="10" as="geometry" />
        </mxCell>
        <mxCell id="C3mWi4B5Svbf4Ds6Fzh5-52" value="4" style="text;strokeColor=default;fillColor=#A8CCF7;html=1;fontSize=12;fontStyle=1;verticalAlign=bottom;align=center;fontFamily=Courier New;" vertex="1" parent="1">
          <mxGeometry x="521" y="552" width="40" height="20" as="geometry" />
        </mxCell>
        <mxCell id="C3mWi4B5Svbf4Ds6Fzh5-53" value="" style="endArrow=none;html=1;rounded=0;fontFamily=Lucida Console;fontSize=6;exitX=0;exitY=0;exitDx=0;exitDy=0;startArrow=none;" edge="1" parent="1" source="C3mWi4B5Svbf4Ds6Fzh5-50">
          <mxGeometry width="50" height="50" relative="1" as="geometry">
            <mxPoint x="529.76" y="563.28" as="sourcePoint" />
            <mxPoint x="641" y="532" as="targetPoint" />
          </mxGeometry>
        </mxCell>
        <mxCell id="C3mWi4B5Svbf4Ds6Fzh5-54" value="&lt;font style=&quot;font-size: 10px;&quot;&gt;left_relation&lt;/font&gt;" style="text;strokeColor=none;fillColor=none;html=1;fontSize=24;fontStyle=1;verticalAlign=middle;align=left;fontFamily=Courier New;" vertex="1" parent="1">
          <mxGeometry x="521" y="392" width="100" height="30" as="geometry" />
        </mxCell>
        <mxCell id="C3mWi4B5Svbf4Ds6Fzh5-55" value="&lt;font style=&quot;font-size: 10px;&quot;&gt;right_relation&lt;/font&gt;" style="text;strokeColor=none;fillColor=none;html=1;fontSize=24;fontStyle=1;verticalAlign=middle;align=left;fontFamily=Courier New;" vertex="1" parent="1">
          <mxGeometry x="521" y="472" width="100" height="30" as="geometry" />
        </mxCell>
        <mxCell id="C3mWi4B5Svbf4Ds6Fzh5-56" value="" style="rounded=0;whiteSpace=wrap;html=1;fontFamily=Lucida Console;fontSize=6;strokeColor=#36393d;strokeWidth=1;fillColor=#cce5ff;" vertex="1" parent="1">
          <mxGeometry x="720" y="432" width="40" height="20" as="geometry" />
        </mxCell>
        <mxCell id="C3mWi4B5Svbf4Ds6Fzh5-57" value="" style="rounded=0;whiteSpace=wrap;html=1;fontFamily=Lucida Console;fontSize=6;strokeColor=#000000;strokeWidth=1;fillColor=#F0B576;" vertex="1" parent="1">
          <mxGeometry x="760" y="432" width="40" height="20" as="geometry" />
        </mxCell>
        <mxCell id="C3mWi4B5Svbf4Ds6Fzh5-58" value="" style="rounded=0;whiteSpace=wrap;html=1;fontFamily=Lucida Console;fontSize=6;strokeColor=#000000;strokeWidth=1;fillColor=#F0B576;" vertex="1" parent="1">
          <mxGeometry x="800" y="432" width="40" height="20" as="geometry" />
        </mxCell>
        <mxCell id="C3mWi4B5Svbf4Ds6Fzh5-59" value="2" style="text;strokeColor=default;fillColor=#a8ccf7;html=1;fontSize=12;fontStyle=1;verticalAlign=bottom;align=center;fontFamily=Courier New;" vertex="1" parent="1">
          <mxGeometry x="720" y="432" width="40" height="20" as="geometry" />
        </mxCell>
        <mxCell id="C3mWi4B5Svbf4Ds6Fzh5-60" value="" style="rounded=0;whiteSpace=wrap;html=1;fontFamily=Lucida Console;fontSize=6;strokeColor=#000000;strokeWidth=1;fillColor=none;" vertex="1" parent="1">
          <mxGeometry x="760" y="422" width="40" height="10" as="geometry" />
        </mxCell>
        <mxCell id="C3mWi4B5Svbf4Ds6Fzh5-61" value="" style="rounded=0;whiteSpace=wrap;html=1;fontFamily=Lucida Console;fontSize=6;strokeColor=#000000;strokeWidth=1;fillColor=none;" vertex="1" parent="1">
          <mxGeometry x="720" y="422" width="40" height="10" as="geometry" />
        </mxCell>
        <mxCell id="C3mWi4B5Svbf4Ds6Fzh5-62" value="&lt;font style=&quot;font-size: 10px;&quot;&gt;Left Anti Join&lt;/font&gt;" style="text;strokeColor=none;fillColor=none;html=1;fontSize=24;fontStyle=1;verticalAlign=middle;align=left;fontFamily=Courier New;" vertex="1" parent="1">
          <mxGeometry x="720" y="392" width="100" height="30" as="geometry" />
        </mxCell>
        <mxCell id="C3mWi4B5Svbf4Ds6Fzh5-63" value="" style="rounded=0;whiteSpace=wrap;html=1;fontFamily=Lucida Console;fontSize=6;strokeColor=#000000;strokeWidth=1;fillColor=none;" vertex="1" parent="1">
          <mxGeometry x="800" y="422" width="40" height="10" as="geometry" />
        </mxCell>
      </root>
    </mxGraphModel>
  </diagram>
  <diagram id="zRxUUZzLL-g8-KCwtxX-" name="Engine">
    <mxGraphModel dx="1038" dy="641" grid="1" gridSize="10" guides="1" tooltips="1" connect="1" arrows="1" fold="1" page="1" pageScale="1" pageWidth="850" pageHeight="1100" math="0" shadow="0">
      <root>
        <mxCell id="0" />
        <mxCell id="1" parent="0" />
        <mxCell id="_hMXWfMEAxl-_pV7blRq-1" value="Parser + Lexer" style="rounded=0;whiteSpace=wrap;html=1;" parent="1" vertex="1">
          <mxGeometry x="240" y="120" width="120" height="60" as="geometry" />
        </mxCell>
        <mxCell id="_hMXWfMEAxl-_pV7blRq-2" value="Binder" style="rounded=0;whiteSpace=wrap;html=1;" parent="1" vertex="1">
          <mxGeometry x="240" y="200" width="120" height="60" as="geometry" />
        </mxCell>
        <mxCell id="_hMXWfMEAxl-_pV7blRq-3" value="Query Planner" style="rounded=0;whiteSpace=wrap;html=1;" parent="1" vertex="1">
          <mxGeometry x="40" y="120" width="120" height="300" as="geometry" />
        </mxCell>
        <mxCell id="_hMXWfMEAxl-_pV7blRq-4" value="Logical Planner" style="rounded=0;whiteSpace=wrap;html=1;" parent="1" vertex="1">
          <mxGeometry x="240" y="280" width="120" height="60" as="geometry" />
        </mxCell>
        <mxCell id="_hMXWfMEAxl-_pV7blRq-5" value="&lt;span style=&quot;font-weight: normal;&quot;&gt;Optimizer&lt;/span&gt;" style="rounded=0;whiteSpace=wrap;html=1;fontStyle=1" parent="1" vertex="1">
          <mxGeometry x="240" y="360" width="120" height="60" as="geometry" />
        </mxCell>
        <mxCell id="_hMXWfMEAxl-_pV7blRq-6" value="" style="endArrow=classic;html=1;rounded=0;entryX=0;entryY=0.5;entryDx=0;entryDy=0;" parent="1" target="_hMXWfMEAxl-_pV7blRq-1" edge="1">
          <mxGeometry width="50" height="50" relative="1" as="geometry">
            <mxPoint x="160" y="150" as="sourcePoint" />
            <mxPoint x="450" y="310" as="targetPoint" />
          </mxGeometry>
        </mxCell>
        <mxCell id="_hMXWfMEAxl-_pV7blRq-7" value="SQL" style="edgeLabel;html=1;align=center;verticalAlign=middle;resizable=0;points=[];" parent="_hMXWfMEAxl-_pV7blRq-6" vertex="1" connectable="0">
          <mxGeometry x="-0.239" y="1" relative="1" as="geometry">
            <mxPoint as="offset" />
          </mxGeometry>
        </mxCell>
        <mxCell id="_hMXWfMEAxl-_pV7blRq-8" value="" style="endArrow=classic;html=1;rounded=0;entryX=0;entryY=0.5;entryDx=0;entryDy=0;exitX=0.995;exitY=0.367;exitDx=0;exitDy=0;exitPerimeter=0;" parent="1" source="_hMXWfMEAxl-_pV7blRq-3" target="_hMXWfMEAxl-_pV7blRq-2" edge="1">
          <mxGeometry width="50" height="50" relative="1" as="geometry">
            <mxPoint x="170" y="160" as="sourcePoint" />
            <mxPoint x="250" y="160" as="targetPoint" />
          </mxGeometry>
        </mxCell>
        <mxCell id="_hMXWfMEAxl-_pV7blRq-9" value="AST" style="edgeLabel;html=1;align=center;verticalAlign=middle;resizable=0;points=[];" parent="_hMXWfMEAxl-_pV7blRq-8" vertex="1" connectable="0">
          <mxGeometry x="-0.239" y="1" relative="1" as="geometry">
            <mxPoint as="offset" />
          </mxGeometry>
        </mxCell>
        <mxCell id="_hMXWfMEAxl-_pV7blRq-10" value="" style="endArrow=classic;html=1;rounded=0;entryX=0;entryY=0.5;entryDx=0;entryDy=0;exitX=0.995;exitY=0.367;exitDx=0;exitDy=0;exitPerimeter=0;" parent="1" edge="1">
          <mxGeometry width="50" height="50" relative="1" as="geometry">
            <mxPoint x="160" y="309.7599999999999" as="sourcePoint" />
            <mxPoint x="240.60000000000014" y="309.65999999999997" as="targetPoint" />
          </mxGeometry>
        </mxCell>
        <mxCell id="_hMXWfMEAxl-_pV7blRq-11" value="AST" style="edgeLabel;html=1;align=center;verticalAlign=middle;resizable=0;points=[];" parent="_hMXWfMEAxl-_pV7blRq-10" vertex="1" connectable="0">
          <mxGeometry x="-0.239" y="1" relative="1" as="geometry">
            <mxPoint as="offset" />
          </mxGeometry>
        </mxCell>
        <mxCell id="_hMXWfMEAxl-_pV7blRq-12" value="" style="endArrow=classic;html=1;rounded=0;entryX=0;entryY=0.5;entryDx=0;entryDy=0;exitX=0.995;exitY=0.367;exitDx=0;exitDy=0;exitPerimeter=0;" parent="1" edge="1">
          <mxGeometry width="50" height="50" relative="1" as="geometry">
            <mxPoint x="160.00000000000023" y="389.7599999999999" as="sourcePoint" />
            <mxPoint x="240.60000000000014" y="389.65999999999997" as="targetPoint" />
          </mxGeometry>
        </mxCell>
        <mxCell id="_hMXWfMEAxl-_pV7blRq-13" value="Plan" style="edgeLabel;html=1;align=center;verticalAlign=middle;resizable=0;points=[];" parent="_hMXWfMEAxl-_pV7blRq-12" vertex="1" connectable="0">
          <mxGeometry x="-0.239" y="1" relative="1" as="geometry">
            <mxPoint as="offset" />
          </mxGeometry>
        </mxCell>
        <mxCell id="_hMXWfMEAxl-_pV7blRq-14" value="Execution Engine" style="rounded=0;whiteSpace=wrap;html=1;" parent="1" vertex="1">
          <mxGeometry x="40" y="450" width="120" height="70" as="geometry" />
        </mxCell>
      </root>
    </mxGraphModel>
  </diagram>
  <diagram id="XhSEx6H6PyKJcrix7z8V" name="Homepage">
    <mxGraphModel dx="1038" dy="641" grid="1" gridSize="10" guides="1" tooltips="1" connect="1" arrows="1" fold="1" page="1" pageScale="1" pageWidth="850" pageHeight="1100" math="0" shadow="0">
      <root>
        <mxCell id="0" />
        <mxCell id="1" parent="0" />
        <mxCell id="jiYSfPfV_WxWqWzqfFnY-1" value="" style="shape=image;verticalLabelPosition=bottom;labelBackgroundColor=default;verticalAlign=top;aspect=fixed;imageAspect=0;image=data:image/png,iVBORw0KGgoAAAANSUhEUgAAA70AAAEICAMAAACkm2NxAAAAAXNSR0IArs4c6QAAAARnQU1BAACxjwv8YQUAAAB1UExURW1tbVhYWEtLS1lZWW5ublBQUE9PT2dnZ11dXW9vb01NTWVlZVVVVVZWVkxMTFpaWmRkZE5OTmtra2NjY1FRUVNTU2lpaVJSUnBwcGFhYWBgYFRUVGxsbGJiYmhoaF5eXldXV1tbW19fX2ZmZmpqalxcXAAAADM7sPUAAAAndFJOU///////////////////////////////////////////////////AINWl9kAAAAJcEhZcwAADsMAAA7DAcdvqGQAACPXSURBVHhe7d3potw0EoZhBhKYsEMYhiVhzXD/lzi9vF61fSXJ3bZPPX8IUpV8znFXt9uW5Y/+cc4dk1evc0fl1evcUXn1OndUXr3OHZVXr3NHtVn1fvSvjyM+eUW3c67VFtX7mlJN+tRr2Ll2nav3M+pT8G9SnHN1elZv8TM38IZM55xdt+r9nIK0+oJ855xRn+r9klKswyDOOZMe1UsRNviKkZxzuubq/TcF2OhrhnPOqRqr9xuKrweGdM5pmqo3OiGjAcM65xQN1fstNdfR5wztnCurr14KrjM/f+WcqrZ6P6Xa+vNZlM5p6qp3g4PmyXdsxDmXVVW9tfOqVA1fxo+G3/iCBudkFYXyPS+3srdkQD9F/QMZp/c1v/AFLc7J7NX7H15tBYnTT+r3ZcJP7jt+2yuanJOZq5fXWgHBMW8JKfiR8DP7L7/rDW3OyazVy0st7yeCE34mLO9fRJ/X8psEjc7JbNX7C6+0rC8JzpgfMSZ9SvBZrd7EaHVOZqreX3mhZb0jOEu7t4Hgc1qf/KPZOZmleqVPTGJLXhGeR/Ap8SuOaHZOZqje2dWNNGLL3pCQR/AJ8QtOaHdOplcvL7I8YhVfkJJH8Onw683Q4ZxMrl5eY3nvCZZoF44JPhl+uTl6nJOp1ctLLM84Q5msAoJPhV9tgS7nZGL18gorIFhGWgHBJxI9/UefczKteqUTVrbj5qsfSCwg+jQWU6xGdDonk6p3syojseBktwzGb9bwZfmcmVK94r1BvxFuIN7x8Cvhp5CYr3b2mWVuA0L1/sjrq4RwE1JLKt4Y9ip1f+V/6HdOJlQvL6+S3wk3kaZvXRB+AvxCgT/od05Wrl5eXUWEG5FcRPjh8euE/iTAOVmxetXb6Su/t5FddJLVNvhtIv4iwjlZqXr/5sVVRLzVX6QXnWKpSX6XGPPlNudK1ctrq4x4M9LLiD8yfpOov4lxTlaoXm2axkX1KVPyy45/1Te7FOcHgpyT5atXWkvjhgS79wxQVlhvZ/fyc158EXpnlq9eXlkCEiowgICEgyrMeSHKOV22etWrsU3z/BhBcOhLon/yS6QQ5pwuW728sATSYlZx4iTqKzKO6A9+hSTinNPlqpfXlYKMKgwhOO4DQssTugl0TpepXsujxkipwhAKMg5HePATkc7pMtXLy0rRdHsbY0hIORh++CxCndOlq/cTXlaKz8ipop8bO+ZrXHtqG8HO6dLVy6tKQkqddwwiIedA4itpBIh2Tpes3m94VUnIqcQgElIqvNZupHj7fjgJ/p/3HeaH/MRgRcRv5NU0n/x9w/UBi48//jf/yvjtfi7+q+/5f2eSrN7bX1VFTiUG0ZBjdK/IXPmmn83Scv+APNN0q+pNP/Et8YjWPu6byN/yfY+ZeUOHU6WqV3vQEBrXZGIUDTkW0+WaePkKK//UzUJ+8jd64Ur6JrNPp7esdPkSsHKyFcw2l6pe/pya1TPyrfQPqAvrDv6KvLugfKUHq91YX+jao15GZPWiPaniSji+tVjuzHj5Zj4afHE+i0T1yl/Xbkiq9TvDaEiShJ+q8/L9QJvK8kRh4QqvAYOqbHuv45POw986Ur6F3f0/wmwfIDmMt0bvg4VvlnSoyLpJVC+RIpKqMYxGXkLmfyQsDeUrLwswJzya+KI0pdmOgTXiSe6FHo86j39PCMqX9rRhRh3/247x1uh9sBdevdrW0sV57bVMI1vKH2d+ZJi0bcHwCjLMGte0TC+gRACkUwH3UP6n3X24AL0P9oDqVRezAlnVGEZEUkb2nmHTfRERbGNto7q9YxtlxFep//x9zQhRxNyo38Zvwfy73W20EL0P9oDqJVBFVjWGERVObMgrcdWKHz7TuQ22UUJ0tcSBWF7pbYuwK/lD4baL+Xe727ZD9D7Y7qo3dxlVwjgqsmK0WYmt2NgCXdtgG3mmU/dx5jO+whEHkRc0KK4Xo/lnu/vWA/Q+2PbVS5zqW9KqMY4q9WQF66nWepF5BfRsg23kiA+VKbFc2NZOjxH8z1v+X3NJ4F/t7tsP0Ptgu6tesuqJD0oakbZE32P8wkYndGyDbWQQ2E5dOFt+tyD+S/5X1fFX4idYo/fBNq9e9cFFA9LqWY93SZvpcNRoE6zSQ/s22EZS11NmjJmjz3EZpvKYr3//4tUbR9ZNrHoJk5HWgIFUq2lPlgmJ3aynCdO8DbaRQlQvjJqynL1WdPswr3h37fdb3X7qEL0P5tU7P7livLjVz6p8ad0G24jTl+1VZe74sX7JubhkPfzQaOH+kwfofTCv3nGLm15kLVnuBxq3wTaixLev+5uN+G018WAHy4INk9q/jfmrclxyEr7lPF+/t59wVqrla8jqemWkes0HouQ1YCDZLanTWdZ6ixVFaNsG24ghIm9+VUD69IzcFVk9/7N2zvd1o/yzWulipvTH4G26vYKTF2c+IqAguKkzUr2E6shrwECyTy45xTVWt3f/4e9o2gbbiCAgaz0zXHl7Dq8c0fE49822TBrX7n3Lf/NYvI/VHXzcFBePKryeg8q9Omb1Xje5g+qd/+a0bINthOjPInRG+dMROqH9cYaZ19ZLIAPSFamP1cghSMOBRFHyN6U/EFavec5D81Sr41Zvdm4SMSKSbMjNInRBOWAkdETzA7HhurumbH9QcpboW6m6OU38aQhein7q3oXVa35z6fDUd0bSXXK6VO/Xw7ytyruOwjOIE0JEJJmQmkXoirKTCR3Q+kBs+KLiiNV2zwVJc8kPpYrT7uKqq7GvNNknEITVS5YuNXHRgJF0P3eo3uCeuJrrxqTGECEiyYLMrNQdyXTnrF6+tD4QG76yXxfMfGJFkDSTOayqOngmNyd21PsNfXEdqpe8FvbTx63VG39nrZlUkESAiCQDEvOIDSgXiZff+mh8IDZ8Q5MBiRpyZuiIIsTkv+RmEDmXX9dvJ9VrWgPvpq16k4dV6SUYU/4iM0SAiCQdeXmXY5QEArIIvaPtgdjwjf3YmUQNOZPsgXfV7TDkpkU+0kuH/0H12r8AktjiN4bSNVUvW40iREdeiH4RSTLtMIHgCOUNc3H0SNsDseE72nTkScIDczoSsssRpJCbEjkaKq7AGFSv/eCRxCYMpduses0/SvKmHPpFJKm0WWa5L3+EZH1B7BVND8SG78znnS1ffEmZlI5zCTMp/EBEzdGTFlQviQYkNmEo3YfNqtf8s5AWoFtEkkg8QiI6SnqbJvaKlgdiw6BRR56CjAntSfaDxQty44iZoyfjqNV7+8SzLSU7uW0yybpQbOqcPt0ikkQklRAdJd2W+SvBdxUn9VqwVdCoI09gPXC+qPpTkBsTObQI7yEPHLV6p61WXMonM8U2bTw5HL0ikjTklKTPWV0RlEfsyLZCRhs2CeubqrzOQOQvIVydJdJkXKo6EHkSn/LYgeNX7wVNMtKSCFMlPnzpFZEkUW+tIjyBoLxYCTzqI5jNDWjVkVdG/IT2nKr51+SG6J+jJ2tdvRWTSslswlAGJN7RpiIrjTgVWSt0ikiSkFJEeAJBBQQvVM02MlsfOZhvGFSfXRO8G0mL8xFrkho48n5IT966eivumCWzCUMZkHhnfCMkK8346RJfyZxOEUkKMooKC6zHnzWxFj37St+22NaEdh15JURPaC8g2CR+11Pkabvpg+y5dfWSbEFmE4YyIBE0ikjKIFBF1hJ9IpIE8hss8UmEFRC8QJfN5SCcf2nY1sR8xE5eQXj+no6CfvdO0Dcjffp79SYQqIo+0Jo+EUkCEsqITyKsYH7Nd0CXyW1uKv9WROay0iPT7lQgeCJMarwh3CR2joSuOXpKDlu9y8VbaBSRlNFjWU26RCSVES8gIYmwEqLnKu7nuBej4fa6W/wSPTry8oid0F4UOVFcFq4ZFrkDg56iw1bv8ksdjSKScohUkbVAl4ikos+IL4vfiDFDXAnRcxWLEpGpH26SMGe+tZa8rPAUHB1lVSffyR1FJt7IdzcetnqXm6VNRFKOccfE7lWgS0RSEeGC6OH8HHElwdLVFad/p19P/cMSvkSfLHtzLAid5O7ZXiHD5DW5A5pnxC+9F169cdajItLm6BGRVGJY/pWMNOKKCJ8xV+/s3Y2WgvhUC/NtvuTlEDmhXVE12Y9c0DhHj8CrN4FQFVlz9IhIKiFaQUYacUWEz5irl7wbmvKIXaNXFlmYaiU8g0+HhBQbcm8if0n1MvWFV28Coapwmd4Nfib9AbhXpKQRVxSWgLV6l0uh0phDZIBuHXlpxE0yS9FHkGQynzxO00xqNZQYr94E6/InpM3QISKpgGAJKWnElRE/sVYvaQNa04gLmU/zkpdG3IR2kXVO/A25FzTM0SPx6k0QF8gekTZDh4ikAoIVxVPO+mDET4zVG6xbWJhwQlQMEbLSrQrBSTTlRNccaTbkxk7h0aNZVW/N06tJbcJQFmTe0SYiKY9YFVkzdIhIyrOcCY/NslgisIz4ibF6yZrJXvciJsr4CLTi35WoCe2yqlVyrk8TuIisb2J5fnJQvTV3HZPahKEsyLyjTURSHrGq1qdLkZRHrISUDALLgi/1tuqNfpwlJ3wUZmcTJYs8KH0mfBehQ1ezEilb4X9m1GleWFVvzbLGpDZhKAsy72gTkZRHrIy0Ce0ikrLeEyshJ4PAsqD8bNWbmHFP7wqdScYL8YUBiZlYzhmBTJtE4m1A3ap67WsqmrcYxVAWZN7RJiIpj1gZaRPaRSRlEaohJ4NAAQmjLtUb+fqrzFMgVEZaHDET2i1M76mDv6Jf/hlRtqpe+9KsVb9wgKEsyLyjTURSXuS2rSzSJrSLSMoiVENOBoECEkadqvdittJr+TTbDdGy3LTDcB/TYUKqTWwqfflUxcqqemtWDCC1CUNZkHlHm4ikAoJVZE1oF5GUY1uVhqQMAgUkjPpVr5358JC8GCIm+bWEUkhutZ5DWeafvUkEq4L3eNpFJOUQKSIpg0ABCaNnVq91v+T+EERMaDcynwiPYzSDVfUaptGOSG3CUBZk3tEmIqmAYBlpI5pFJOUQKSIpg0ABCaOnVq91KfT0l+m2WZIzZLdhLItV9fo55wnBMtJGNItIyiFSRFIGgYL1GotPrd7mHTOif0K7HfkthAVgA6vq1e8enZDahKEsyLyjTURSAcEy0kY0i0jKMK4FR1YGgYL1t4JjVW/yVgX6J7Tb2Z9xuKYsABtYVa/PtZoQLCNtRLOIpAwCVWRlEChYH3w+t3rfMK6MvLXg0rF41juGEeoxjs2qemvmfZHahKEsyLyjTURSAcEy0kY0i0jKIFAkzNclUkHG4LnV27xnQO+E9hqWm79iGMZoVb3mP8wFmU0YyoLMO9pEJBUQLFvPJ6RZRFIGgaK658WmkDF4cvVa15OO36oQXnClo4p5DthC5Z/IqzepcCNMYL2CDM0ikjIIFAmP0CNSQcbgydVrfrmQtkTfRF5OKopBquhr4Sx59SaZlz0hb0CriKQ040XF4K68EJEKMgbPrl7rB90r8hbom9Beyf588AlDmHn1Jpkfe0XegFYRSWnEqcpHzpZJS6QMnl295tcLaXPhtEI6ajFKBQaw8+pNI1pG2oBWEUlpxD0HP8PgDNVLz8Q8y3iNcczqj9gPW70br+d8RbSMtAGtIpLSiHsOfobB06vX+iDSSIHQM6G9nvVECWq/9F4ctnq3fZbCDdEy0ga0ikhKI+45+BkGT6/e1n0TWRa+oYgGjGREco3DVi+JoFFEUgnRMtIGtIpISiPuKdZ3vzy/eq2fc6RNaJ/Q3qLi8bkXJNfw6k0jWkbagFYRSWnEPcW6/p5fvdY/R/DJSvuE9iZVF32/IbnCunortk9mE4YyIBE0ikgqIVpG2oBWEUlpxD3Feo3j41Xv+u8bLPhbWnxSw2A25FZYV2/Fsx3IbMJQBiSCRhFJJUTLSBvQKiIpqXUqXhN+htEOqte6d1a3KtA6ob2R9kTzNZLt1tVrfsn2+b0ZyoBE0CgiqYRoGWkDWkUkJbVMBmjGzzA6YPUuf4fwbhw6WjGaTd2KHhdevWlEy0gb0CoiKanyckQf/AyjPVSv9e2MtDvaJsLUNA3j2ZBrdtTqXa36S6uIpBKiZaQNaBWRlETYUwSnfPZQvda/yOKLLW0T2ttVPNq43zznilcJiU0YSrf6uWkVkVRCtIy0Aa0ikpIIe4pgRfNdVG/Dk6bC5dvo6IABbWyPUBgdtXrJG9AqIqmEaBlpA1pFJCUR9hT8CJNdVK/1TzK7VYGWSWX1xLxiSBuSjYLqtX/yk9jCfpmbxAGtIpJKiJaRNqBVRFISYU/BjzA5ZPXOfg0aJrR3YT0muLGvBnsVVK/9ZUJei78YSkfigFYRSSVEy0gb0CoiKYmwZwjP6Oyjeq0X0UiLfEJZHxyYx6A25Nrso3rNH/jrr/k0i0gqIVpG2oBWEUlJhD0DP8HMPqrX+jcZb1Xg/ye0d2L/LLoi2aRD9UYeG2/FSLr1EqU0i0gqIVpG2oBWEUlJhMnCZxp2tJPqDe40KCAt/FvS3guj2syfqK/qUL0dXieMpCNvRLOIpBKiZaQNaBWRlGR90GS3C5gxO6le6x4iK/hiWnjoqB3j2pBrEVaveVJP3RfuBUbSkTeiWURSCdEy0ga0ikhKsn65WK+y1dVBq5fvW/zf5N7cke3vMyDZIKxe84u2wy/PQDryRjSLSCohWkbagFYRSUnW58N1eE9N20v1WnfRLecj/mdya+6KgW3sh0vHrN5gdXzaRSSVEC0jbUCriKQk80U18jZx1Oq9vW749+Sv21A91d2sYN9lx6xe0ia0i0gqIVpG2oBWEUlpxMlI28Ruqtd6RHLN4Z+T20hdMbAZ6bJI9Zqf4UteAwaSkTahXURSCdEy0ga0ikhKI05G2iZ2U73Wv8olI7yecx+pI8a1Sz5xKSFSvU94nTCQKnzeDB0ikkqIlpE2oFVEUhpxMtI2sZ/qNZ6K/yHyd/yJobqx/XUWGEF1yOola4YOEUklRMtIG9AqIimNOBlpm9hP9dpfOvxjwkD9MG4N46SvWPXWXgSv9o6BVKTN0CEiqYRoGWkDWkUkpREnI20Tx63eD7/yj1HDgwPjGLeO7XaJWPVat09WPeNTpSJ3Q9IjIqnAerPIxs8xIk5G2iZ2VL01T5xeYJxuGh/lyyiaHtXbvAi9cSk8suboEZFU8C3RqvXSbTSLSEojTkbaJnZUvea/yxrD9GJ+fs6K6Tp9tHqDo4u85okBjKMia44eEUkFfxCtIm1Es4ikNOv3mV/I28KeqrdqMYtJ7zlpDFuPcSTR6u1QTiYMI4qt3UmXiKQC6+K4pI1oFpGUFk4RyqtdbUWxp+ptrBcG6aVqReclRlIcsHpJWqBLRFIBwTLSRjSLSMogUEbaFrx6E35h1BZfMpYgXr3vGUhEVjWGEZG0QJeIpAKCZaSNaBaRlEGgjLQt7Kp6zX+YuW8ZoxNGbcNYgnj1dn/l5TGM5jeSFugTkVRAsCo4UqVdRFIGgTLStnCe6mWIThi0FaOVJarXtnowSbVsaxGQtESfiKQCglWb3zlhvcO3/rGwRfuq3nCFSFnfkwPGK59J8s1Gieq1vfQaDz9M3/Tj3wroFJFUQLCKrAntIpIyfiJSRt4G9lW91j01wwCdMOjM69/4hw3jFXWp3sZ3MEbRkLNCp4ikAoJVZE1oF5GUQ6SMtA3srHrrJ0gwQB+MOVf7szFiSap6bS8VcioxiCQxr41eEUkFBKvImtAuIimHSNl6+kg/O6te819m0OfBgYh827w2808b8Wajo1UvKWv0ikjKM553f8B9T+ZHGZHX31mql/QuIl9sbutl/c3/2NyGLEpWb4+a0limIaTuwaBbRFKecVHt8D4zOkQkZREqI62/vVVv3UPr+/6BGHLu3lE1gUO72ahP9Uav4qgs51JJCdAtIimPWBVZM3SISMoiVNbwVPa8vVWv+S9z1/PvE3kV01P3w0lfe9LVa9lo02krxlAk7+aiX0RSHrEqsmboEJGUZb1mpP2iackBdle9th9oQHIPkVtaxit2dVe0SM7KVK/lE5+UKgyhICNEv4ikPGJFkSWB6RGRlEesrO3ur+sI/HNld9Vr/svckNsDI87Rc0GDjXLvT6Z6LRslowpDCNIzQAkQkZRHrIikOXpEJOURqyOvyv3dm/9Z2l/11ny57PAQkAEjztFzQ5MNuTm56jVcqsoNU2A4k0pGBAEikrKM82bImqNHRFKe9S7BludcDIfp/O/C/qq3pkDI7CCykOPvdN1Ybza9IzkjW3aMImj44ssIgr/JiCBCRFIWoaLYYQ5dIpIKCNaRZze9qUZeIqeo3o6zJBlxZjU4rTblm42y1Wu45ElGBQYQkBBDhIikLEJFJC3QJSKpgGBd7bMt50dEb2mb7LB6mx8i24AB5+gZ0WxDblr+kJdRBCTYvWWAMhKiCBGRlEWoiKQFukQklRCt+5lEm+XXmWDW/A6r1/6XIa9dZCmaYOa/eabNDclJhS+sjFJW/Rg28suyS5gQIyIp5ytCNdHbeegTkVRCtAGJJutLU+u9u8fqtU4o7vfgQAaciRzx0GNTutmoUL3fMEwZCWaklxEfR4yIpBwiRSQt0SciqaTinhUyDYITuOuv9XusXmt9kNWO8ebombOuUHpHckqhevU/CfFW8lIixCcQJCIph0hN/PwHnSKSigi3IFNG2gwdI6/eSeQz/x1dC+apNleFM2ul6pX/JpWLWpNdVLj0QZSIpAzbQ4xJWqFTRFLEf/nvXc0No6SKSJoJlqfcZfV+z+Y0iys6DSJTrBPzLOi1yd9sVKxeeVVj4o1ILimdOiVMRFIGgSKSVugUkRT6+ONl+RJvQqoi9gw6uia7rF7bX4acZgw3R8+adX3wO5LjitUrny2regqqejhBeBJhIpIyCNQkHmNlO/FFUuD6HXR5G+o93uYrcouIX6BrZp/Va/qDk9MqMseLnlDNfLD851a5euVXC+EmpJYQnUaciKQ04kQkrdkWYCZp7f6talG+VV+gtL0TffhrZNLAPqvXsttekdIocpU5cy6bCJvczUZC9aobrZg2Kj60obxuFoEiktKI0yRfCPRryFkZDnwW5UubFdlpick59M7ttHoNH25ktGK0OXpiut9spFSv+nIh2oDEAmFxRCJFJCURJiIpRL8m+ktO85rn5Vu95Hdmqmn6GxLdCzutXv0v/h0JjRhtjp44Ymwyy/dI1SsuXRDOqCvQvlIrt0oRKiIpJXr8mERSBAEikubmNyXM92HVF6i7+NmJzA6OfmM+fPUS3yhyJ0vhk4Yom/RRvlS96uuZaBlpedJkcmJFJKUQpclcKbMVGUkzyze3efnSVOvLcS2Ud6XP8fhf31a9my3xEfiZLRYR34jB5uhJsZ3JHJAc0qpXvF/OeM2XrDypeLtWL0EikmKMqy2RNVovrDUr3+aH1srY4IqtepWDp07YYol8Cj6LweboSSPOiOSAWL3im4ZpWXbtlBXBBQSLSIpTr5DdZa+mEyNavaRonaHjqvGxlzI2t/aabhFZDyD+YES3Yaw5YQoIkTap9z+1esXXC8EK7fOD4BKiRSRF2b705o8MCFLNrzX8TtvM4rJyw1dfg9S3OLpVZD0CWywguElkhqRynGj7cBgkzlzJ1SuuD0CwgIQs7bD5gngRSTGRqskhK8H8XJvh/ETs5pDVZXtaN5U85KVfRdYjsMU8ca3zrNgtTXTlEWsUP0muV+8//2OgPIKLCM/Sz+uTICIpwnhWobRsJ2FdMOSI5i2xpRD9MtIeQLqVh9gWjLSgfW98R7QV6QuG6hWX2nhDdJa0EsJyfm8WGSKSQsYV2ItLlxDXQ/hGQcd22E7I+hj/jvfSFrHFHPmILim6pIT6WUO4WeRin6V6xQ0LJ/SkO6ktK6qRooq/SxqPmpVXAZHtIqfzzTVkxGYiCDBoLxiV8G2FyGqJZ5vQW/SBeLtgQr2tesX9RnCKdrOF6Rla5Bh8ur4GLs7anCExh8h2jLdQ/zJQsJGQ7U68UXCb4UbYXAaBdd4kzxcSUKR9A41bndQ2Vq96rpPoGPGpTESLSHooNp1V+yVnjeFWzE/0NWATAX21lVCn+Yl5xVdo/eXn0tul8sW38r1vMp+5Zq1eee8lLjaIF+Ss9/qT9khsuYDgRsnnRNHfH+Mv9fiw337iFRtKIsxIvZKYe3yF8bGUSeNpBHP1Wl4xq1nx+tu2+V5h8h6IDRcR3uQTxoogojdGn5POVWikE5vV2EgSYQbWRfBJW5AncWruH28V1dtzP8axHQMSH4ftltnW2InK3GSy0bQNxl6gqwuG3EbhEy7zVphCpuwDeXN1j1PIuA5aU71VayvphBsCA6Q+DJtVNJdX4duibc6xIv7FkM4uGHIjbCSBIAsyZfuu3k0/ftmCDbmPwlY15NQqn+ohsJfE+u30dsGQG8lPRiTIgkzZ3qt3s3ox3yN8R/ZjWJ8uQlod5fxd1/dSxgzQ3QVDboWtRH1GjAWpsv1Xb+UyH3nVc3LIfwj7c/lIrFF+EtXVG6Lbpee3EdAFQ26FrUQRYkKq7ADV2/8bV8PlQEZ4BLZoQqqdPMWh04uD0WKI6IIhN8NmIqomfZErO0T1VjxPNsN6PLrAGNurOaV2YZxAPSBbUrfU5EL2WiwxXTDkZthMBAE25MoOUr21S32EGqfhMMrW6qfr2m4bvrNOCqp8ixhkL0wdq3rTl+kIsCFXdpjqtTzCM63yE23COBtjY3UYQ0eeRcPpq0LtHqt6kz+s4ba1GZJlB6rei8ZLmh1+BkbaFJuq9gXjaCpPvtd8xl8Ib59EdsGQ20kdhtBtRLLsWNXbMve69IhSDYNtp/jRpNAXYm5Z/cH+AUxiHrFdMOSG2NAavUYky45WvRc1BdxtpV/G20jHu1MZMY/YepYzWBWPwDgAfrkV+8W+fetXvVeWpQ6/Tjy8qwpjai7x0toed73XhSjd3dxpCr90P8sD17x4sPhfmc7T6Fu9V8pSbJ/2rNwrxtWQI3xH3Oq9OrXl3p+DmX3xeezw7kT4NZfoO43+1XvzY/LqxTb3dzK4hpyZ9+8Xq+J8+j55Q21P04MMvuqxymHG+2nq758P+dWeLzYVIfpM+yPbqHrnvnj/vvdHbYDdoyHHnRo7e46e83hA9T4Cu0dDjjs1dvaMdcGW/fPqdSfF3p7QfiJeve6k2NsT2k/Eq9edFHt7dLaLvRdeve6cgqfc0X4mXr3unNjZo8c9zuFxvHrdObGzRzSfilevO6Vg4RfaT8Wr150S+3rU5162nfHqdafEvh7RfC5eve6M2NWjplXTdsur150Ru3pE88l49bpjud2a/UPhpqzgRnPaT8ar1x3HatGfxDNbLggYnXMBEa9edxTR1ULoWwlCaT8br153CKmHvUSnUNE32v6R38/h1euOILNQZmRpQ3pGNJ+OV687APZcXPDxS/uoy3K+e+TV6/aPHZdE2IDWEc3n49Xr9k54vimRd7SNzjlT48qr1+0duy2L0BuaRjSfkFev2zn2WgHBF+unap3xxl549bp9E5/PMdUoDSOaz8ir1+0bO61ouKbL/05oPyOvXrdr+gPVSOD/RjSfklev2zX2mSIaf+JvvV69bt/+Zp9JLvFv+efoPsxJefW6PWOXab7+50f+NfqOcc7Jq9ftGbusGsOclFev2zN2Wa3zPl78xqvX7Rm7rBajnJVXr9szdlmljR9q/nRevW7P2GWVGOS0vHrdnrHL6jDGeb3E6v2EJLd/7LIq53tW/to5qjd42mMeWW7/2GNVGOLEzlG97C4VWW7/2GM1PmOIEztF9X7B/lKdeu7rubDHKryEnXyG6n3H/tKd/xvRWbDDKjDAqZ2gen9gd5m8I9nt27/YX2YfGODUjl6937KzKnzLEG7P2FlWr0k/t0NXb0Pp4ntGcnvFjrIi++SOW72v2E+tGM7tU907NMlnd9zq/YMd1Yrh3E6xm0x+I/fsvHoZzu2U/YpC7MlG5+TVy3BurzIPIIv7isTz8+plOLdb7CjVyyler16v3v1jT2lezGHzhVcvw7kdY1cpXsQsjYFXL8O5PWNflRH/Qnj1MpzbtfWjxeJ+Jfql8OplOLdvv7O7cgh9Obx6Gc7tXemJRoS9JF69DOf2L1O/L/OW7eNWr3uBEo81eqn3e3r1uoP5mZK9+/wl3ybm1evcUXn1OndUXr3OHZVXr3NH5dXr3FF59Tp3VF69zh2VV69zR+XV69xRefU6d1Revc4dlVevc0fl1evcUXn1OndM//zzf2dS4iVl1e0ZAAAAAElFTkSuQmCC;" parent="1" vertex="1">
          <mxGeometry x="440" y="170" width="154.5" height="42.62" as="geometry" />
        </mxCell>
        <mxCell id="jiYSfPfV_WxWqWzqfFnY-2" value="" style="editableCssRules=.*;shape=image;verticalLabelPosition=bottom;labelBackgroundColor=#ffffff;verticalAlign=top;aspect=fixed;imageAspect=0;image=data:image/svg+xml,PHN2ZyB4bWxucz0iaHR0cDovL3d3dy53My5vcmcvMjAwMC9zdmciIHhtbG5zOnY9Imh0dHBzOi8vdmVjdGEuaW8vbmFubyIgd2lkdGg9IjIwIiBoZWlnaHQ9IjE2IiB2aWV3Qm94PSIwIDAgMjAgMTYiPiYjeGE7CTxzdHlsZSB0eXBlPSJ0ZXh0L2NzcyI+JiN4YTsJLnN0MHtmaWxsOiM0Mjg1ZjQ7fSYjeGE7CS5zdDF7ZmlsbDojNjY5ZGY2O30mI3hhOwkuc3Qye2ZpbGw6I2FlY2JmYTt9JiN4YTsJLnN0M3tmaWxsOiNmZmY7fSYjeGE7CTwvc3R5bGU+JiN4YTsJPHBhdGggY2xhc3M9InN0MiIgZD0iTTAgMGgyMHY3SDB6Ii8+JiN4YTsJPHBhdGggY2xhc3M9InN0MSIgZD0iTTE4IDBoMnY3aC0yeiIvPiYjeGE7CTxwYXRoIGNsYXNzPSJzdDAiIGQ9Ik0xOCA3bDItN2gtMnoiLz4mI3hhOwk8cGF0aCBjbGFzcz0ic3QxIiBkPSJNMCAwaDJ2N0gweiIvPiYjeGE7CTxnIGNsYXNzPSJzdDMiPiYjeGE7CQk8cGF0aCBkPSJNNCAzaDZ2MUg0eiIvPiYjeGE7CQk8cmVjdCB4PSIxMyIgeT0iMiIgd2lkdGg9IjMiIGhlaWdodD0iMyIgcng9IjEuNSIvPiYjeGE7CTwvZz4mI3hhOwk8cGF0aCBjbGFzcz0ic3QyIiBkPSJNMCA5aDIwdjdIMHoiLz4mI3hhOwk8cGF0aCBjbGFzcz0ic3QxIiBkPSJNMTggOWgydjdoLTJ6Ii8+JiN4YTsJPHBhdGggY2xhc3M9InN0MCIgZD0iTTE4IDE2bDItN2gtMnoiLz4mI3hhOwk8cGF0aCBjbGFzcz0ic3QxIiBkPSJNMCA5aDJ2N0gweiIvPiYjeGE7CTxnIGNsYXNzPSJzdDMiPiYjeGE7CQk8cGF0aCBkPSJNNCAxMmg2djFINHoiLz4mI3hhOwkJPHJlY3QgeD0iMTMiIHk9IjExIiB3aWR0aD0iMyIgaGVpZ2h0PSIzIiByeD0iMS41Ii8+JiN4YTsJPC9nPiYjeGE7PC9zdmc+;" parent="1" vertex="1">
          <mxGeometry x="290" y="42" width="60" height="48" as="geometry" />
        </mxCell>
        <mxCell id="jiYSfPfV_WxWqWzqfFnY-3" value="" style="editableCssRules=.*;shape=image;verticalLabelPosition=bottom;labelBackgroundColor=#ffffff;verticalAlign=top;aspect=fixed;imageAspect=0;image=data:image/svg+xml,PHN2ZyB4bWxucz0iaHR0cDovL3d3dy53My5vcmcvMjAwMC9zdmciIHhtbG5zOnY9Imh0dHBzOi8vdmVjdGEuaW8vbmFubyIgd2lkdGg9IjMyMy45MDU2MTAzOTg2NzUxNSIgaGVpZ2h0PSIzNzYuNDIyMjk0OTYzNjg0MDciIHZpZXdCb3g9Ii0wLjA5NzAwMDAwMjg2MTAyMjk1IDAuMjg3OTk5OTg3NjAyMjMzOSA4NS42OTk5OTY5NDgyNDIxOSA5OS41OTUwMDEyMjA3MDMxMiI+JiN4YTs8c3R5bGUgdHlwZT0idGV4dC9jc3MiPiYjeGE7CS5zdDB7ZmlsbDojYWVjYmZhO30mI3hhOwkuc3Qxe2ZpbGw6IzY2OWRmNjt9JiN4YTsJLnN0MntmaWxsOiM0Mjg1ZjQ7fSYjeGE7PC9zdHlsZT4mI3hhOwk8cGF0aCBjbGFzcz0ic3QwIiBkPSJNLS4wOTcgNzUuODE1VjU1Ljg3NGw0Mi44NS0yMC4xODN2MTkuMDd6bTAtMzUuNDAzVjIwLjQ3MUw0Mi43NTMuMjg4djE5LjA3eiIvPiYjeGE7CTxwYXRoIGNsYXNzPSJzdDEiIGQ9Ik04NS42MDMgNzUuODE1VjU1Ljg3NGwtNDIuODUtMjAuMTgzdjE5LjA3em0wLTM1LjQwM1YyMC40NzFMNDIuNzUzLjI4OHYxOS4wN3oiLz4mI3hhOwk8cGF0aCBjbGFzcz0ic3QyIiBkPSJNNDIuNzUzIDgwLjMxNGwxNi4yMTctNy41MjUgMjEuMDg0IDkuNzE3LTM3LjMwMSAxNy4zNzd6Ii8+JiN4YTs8L3N2Zz4=;" parent="1" vertex="1">
          <mxGeometry x="425" y="42.94" width="40" height="47.06" as="geometry" />
        </mxCell>
        <mxCell id="jiYSfPfV_WxWqWzqfFnY-4" value="" style="outlineConnect=0;dashed=0;verticalLabelPosition=bottom;verticalAlign=top;align=center;html=1;shape=mxgraph.aws3.s3;fillColor=#E05243;gradientColor=none;" parent="1" vertex="1">
          <mxGeometry x="560" y="30" width="50" height="60" as="geometry" />
        </mxCell>
        <mxCell id="jiYSfPfV_WxWqWzqfFnY-5" value="" style="dashed=0;outlineConnect=0;html=1;align=center;labelPosition=center;verticalLabelPosition=bottom;verticalAlign=top;shape=mxgraph.webicons.mongodb;gradientColor=#DFDEDE" parent="1" vertex="1">
          <mxGeometry x="680" y="30" width="60" height="60" as="geometry" />
        </mxCell>
        <mxCell id="jiYSfPfV_WxWqWzqfFnY-8" value="" style="endArrow=block;html=1;rounded=0;exitX=0.5;exitY=1;exitDx=0;exitDy=0;strokeWidth=2;endFill=1;startArrow=none;startFill=0;strokeColor=#4b4b4b;" parent="1" source="jiYSfPfV_WxWqWzqfFnY-2" edge="1">
          <mxGeometry width="50" height="50" relative="1" as="geometry">
            <mxPoint x="340" y="100" as="sourcePoint" />
            <mxPoint x="520" y="170" as="targetPoint" />
            <Array as="points">
              <mxPoint x="320" y="140" />
              <mxPoint x="520" y="140" />
            </Array>
          </mxGeometry>
        </mxCell>
        <mxCell id="jiYSfPfV_WxWqWzqfFnY-10" value="" style="endArrow=none;html=1;rounded=0;strokeColor=#4b4b4b;strokeWidth=2;entryX=0.5;entryY=1;entryDx=0;entryDy=0;" parent="1" target="jiYSfPfV_WxWqWzqfFnY-3" edge="1">
          <mxGeometry width="50" height="50" relative="1" as="geometry">
            <mxPoint x="445" y="140" as="sourcePoint" />
            <mxPoint x="450" y="120" as="targetPoint" />
          </mxGeometry>
        </mxCell>
        <mxCell id="jiYSfPfV_WxWqWzqfFnY-11" value="" style="endArrow=none;html=1;rounded=0;strokeColor=#4b4b4b;strokeWidth=2;" parent="1" target="jiYSfPfV_WxWqWzqfFnY-5" edge="1">
          <mxGeometry width="50" height="50" relative="1" as="geometry">
            <mxPoint x="480" y="140" as="sourcePoint" />
            <mxPoint x="710" y="100" as="targetPoint" />
            <Array as="points">
              <mxPoint x="710" y="140" />
            </Array>
          </mxGeometry>
        </mxCell>
        <mxCell id="jiYSfPfV_WxWqWzqfFnY-12" value="" style="endArrow=none;html=1;rounded=0;strokeColor=#4b4b4b;strokeWidth=2;entryX=0.5;entryY=1;entryDx=0;entryDy=0;" parent="1" edge="1">
          <mxGeometry width="50" height="50" relative="1" as="geometry">
            <mxPoint x="584.76" y="140" as="sourcePoint" />
            <mxPoint x="584.76" y="90" as="targetPoint" />
          </mxGeometry>
        </mxCell>
        <mxCell id="jiYSfPfV_WxWqWzqfFnY-13" value="Table" style="shape=table;startSize=22;container=1;collapsible=0;childLayout=tableLayout;fontStyle=1;align=center;" parent="1" vertex="1">
          <mxGeometry x="430" y="248" width="180" height="90" as="geometry" />
        </mxCell>
        <mxCell id="jiYSfPfV_WxWqWzqfFnY-14" value="" style="shape=tableRow;horizontal=0;startSize=0;swimlaneHead=0;swimlaneBody=0;top=0;left=0;bottom=0;right=0;collapsible=0;dropTarget=0;fillColor=none;points=[[0,0.5],[1,0.5]];portConstraint=eastwest;" parent="jiYSfPfV_WxWqWzqfFnY-13" vertex="1">
          <mxGeometry y="22" width="180" height="23" as="geometry" />
        </mxCell>
        <mxCell id="jiYSfPfV_WxWqWzqfFnY-15" value="" style="shape=partialRectangle;html=1;whiteSpace=wrap;connectable=0;fillColor=none;top=0;left=0;bottom=0;right=0;overflow=hidden;" parent="jiYSfPfV_WxWqWzqfFnY-14" vertex="1">
          <mxGeometry width="60" height="23" as="geometry">
            <mxRectangle width="60" height="23" as="alternateBounds" />
          </mxGeometry>
        </mxCell>
        <mxCell id="jiYSfPfV_WxWqWzqfFnY-16" value="" style="shape=partialRectangle;html=1;whiteSpace=wrap;connectable=0;fillColor=none;top=0;left=0;bottom=0;right=0;overflow=hidden;" parent="jiYSfPfV_WxWqWzqfFnY-14" vertex="1">
          <mxGeometry x="60" width="60" height="23" as="geometry">
            <mxRectangle width="60" height="23" as="alternateBounds" />
          </mxGeometry>
        </mxCell>
        <mxCell id="jiYSfPfV_WxWqWzqfFnY-17" value="" style="shape=partialRectangle;html=1;whiteSpace=wrap;connectable=0;fillColor=none;top=0;left=0;bottom=0;right=0;overflow=hidden;" parent="jiYSfPfV_WxWqWzqfFnY-14" vertex="1">
          <mxGeometry x="120" width="60" height="23" as="geometry">
            <mxRectangle width="60" height="23" as="alternateBounds" />
          </mxGeometry>
        </mxCell>
        <mxCell id="jiYSfPfV_WxWqWzqfFnY-18" value="" style="shape=tableRow;horizontal=0;startSize=0;swimlaneHead=0;swimlaneBody=0;top=0;left=0;bottom=0;right=0;collapsible=0;dropTarget=0;fillColor=none;points=[[0,0.5],[1,0.5]];portConstraint=eastwest;" parent="jiYSfPfV_WxWqWzqfFnY-13" vertex="1">
          <mxGeometry y="45" width="180" height="22" as="geometry" />
        </mxCell>
        <mxCell id="jiYSfPfV_WxWqWzqfFnY-19" value="" style="shape=partialRectangle;html=1;whiteSpace=wrap;connectable=0;fillColor=none;top=0;left=0;bottom=0;right=0;overflow=hidden;" parent="jiYSfPfV_WxWqWzqfFnY-18" vertex="1">
          <mxGeometry width="60" height="22" as="geometry">
            <mxRectangle width="60" height="22" as="alternateBounds" />
          </mxGeometry>
        </mxCell>
        <mxCell id="jiYSfPfV_WxWqWzqfFnY-20" value="" style="shape=partialRectangle;html=1;whiteSpace=wrap;connectable=0;fillColor=none;top=0;left=0;bottom=0;right=0;overflow=hidden;" parent="jiYSfPfV_WxWqWzqfFnY-18" vertex="1">
          <mxGeometry x="60" width="60" height="22" as="geometry">
            <mxRectangle width="60" height="22" as="alternateBounds" />
          </mxGeometry>
        </mxCell>
        <mxCell id="jiYSfPfV_WxWqWzqfFnY-21" value="" style="shape=partialRectangle;html=1;whiteSpace=wrap;connectable=0;fillColor=none;top=0;left=0;bottom=0;right=0;overflow=hidden;" parent="jiYSfPfV_WxWqWzqfFnY-18" vertex="1">
          <mxGeometry x="120" width="60" height="22" as="geometry">
            <mxRectangle width="60" height="22" as="alternateBounds" />
          </mxGeometry>
        </mxCell>
        <mxCell id="jiYSfPfV_WxWqWzqfFnY-22" value="" style="shape=tableRow;horizontal=0;startSize=0;swimlaneHead=0;swimlaneBody=0;top=0;left=0;bottom=0;right=0;collapsible=0;dropTarget=0;fillColor=none;points=[[0,0.5],[1,0.5]];portConstraint=eastwest;" parent="jiYSfPfV_WxWqWzqfFnY-13" vertex="1">
          <mxGeometry y="67" width="180" height="23" as="geometry" />
        </mxCell>
        <mxCell id="jiYSfPfV_WxWqWzqfFnY-23" value="" style="shape=partialRectangle;html=1;whiteSpace=wrap;connectable=0;fillColor=none;top=0;left=0;bottom=0;right=0;overflow=hidden;" parent="jiYSfPfV_WxWqWzqfFnY-22" vertex="1">
          <mxGeometry width="60" height="23" as="geometry">
            <mxRectangle width="60" height="23" as="alternateBounds" />
          </mxGeometry>
        </mxCell>
        <mxCell id="jiYSfPfV_WxWqWzqfFnY-24" value="" style="shape=partialRectangle;html=1;whiteSpace=wrap;connectable=0;fillColor=none;top=0;left=0;bottom=0;right=0;overflow=hidden;" parent="jiYSfPfV_WxWqWzqfFnY-22" vertex="1">
          <mxGeometry x="60" width="60" height="23" as="geometry">
            <mxRectangle width="60" height="23" as="alternateBounds" />
          </mxGeometry>
        </mxCell>
        <mxCell id="jiYSfPfV_WxWqWzqfFnY-25" value="" style="shape=partialRectangle;html=1;whiteSpace=wrap;connectable=0;fillColor=none;top=0;left=0;bottom=0;right=0;overflow=hidden;" parent="jiYSfPfV_WxWqWzqfFnY-22" vertex="1">
          <mxGeometry x="120" width="60" height="23" as="geometry">
            <mxRectangle width="60" height="23" as="alternateBounds" />
          </mxGeometry>
        </mxCell>
        <mxCell id="jiYSfPfV_WxWqWzqfFnY-26" value="" style="endArrow=block;html=1;rounded=0;strokeColor=#4b4b4b;strokeWidth=2;entryX=0.5;entryY=0;entryDx=0;entryDy=0;endFill=1;exitX=0.516;exitY=1.041;exitDx=0;exitDy=0;exitPerimeter=0;" parent="1" source="jiYSfPfV_WxWqWzqfFnY-1" target="jiYSfPfV_WxWqWzqfFnY-13" edge="1">
          <mxGeometry width="50" height="50" relative="1" as="geometry">
            <mxPoint x="520" y="208" as="sourcePoint" />
            <mxPoint x="570" y="108" as="targetPoint" />
          </mxGeometry>
        </mxCell>
      </root>
    </mxGraphModel>
  </diagram>
  <diagram id="RgCjnP_MTu8JPGZt0ach" name="Reader">
    <mxGraphModel dx="1038" dy="641" grid="1" gridSize="10" guides="1" tooltips="1" connect="1" arrows="1" fold="1" page="1" pageScale="1" pageWidth="850" pageHeight="1100" math="0" shadow="0">
      <root>
        <mxCell id="0" />
        <mxCell id="1" parent="0" />
      </root>
    </mxGraphModel>
  </diagram>
</mxfile>
